<?xml version="1.0" encoding="UTF-8"?>
<svg id="Layer_1" data-name="Layer 1" xmlns="http://www.w3.org/2000/svg" viewBox="0 0 1000 1000">
  <defs>
    <style>
      .cls-1 {
        fill: #7b8388;
      }

      .cls-2 {
        fill: #e2e9ef;
      }
    </style>
  </defs>
  <g>
    <path class="cls-1" d="m463.68,925.59c-62.74,0-120.14-20.25-153.54-54.17-17.72-17.99-26.92-38.41-26.61-59.06.08-4.94.33-9.76.78-14.57-4.91-1.05-9.52-2.82-13.78-5.3-21.65-12.62-29.72-39.2-19.64-64.64,10.78-27.19,24.09-53.73,36.97-79.4,3.86-7.69,7.71-15.37,11.5-23.07,6.69-13.59,20.74-19.85,28.52-22.37.22-.07.45-.14.68-.21.79-10.27,5.62-20.73,14-30.09,16.5-18.41,44.51-30.44,71.81-30.95-6.52-29.78,12.73-53.42,29.74-66.08-25.02-20.27-99.05-80.78-122.07-105.7-8.33-9.01-9.42-25.36-2.72-40.67,9.08-20.76,29.18-33.15,53.77-33.15,8.44,0,17.51,1.42,26.94,4.21,32.07,9.49,73.28,31.6,111.62,59.74,34.73-66.9,76.6-106.55,112.98-106.55,14.83,0,27.6,7.08,35.96,19.95,19.07,29.34,14.01,84.59-13.42,148.46,39.53,38.54,52.82,72.78,70.99,119.62,4.5,11.59,9.15,23.57,14.64,36.86,36.86,89.12,24.34,183.78-31.89,241.16-66.97,68.34-151.22,105.97-237.21,105.97h-.01Z"/>
    <path class="cls-1" d="m624.62,261.23c40.35,0,58.45,61.19,13.38,162.59,51.05,48.05,58.68,87.36,87.72,157.57,32.03,77.46,28.38,173.01-30.29,232.88-74,75.5-158.91,103.67-231.76,103.67-97.47,0-173.33-50.45-172.5-105.46.12-7.68.7-14.73,1.58-21.28-6.39-.33-12.71-2.02-18.38-5.32-19.77-11.52-24.26-35.31-16.38-55.2,13.83-34.88,31.67-68.28,48.21-101.91,4.59-9.33,14.46-15.37,24.01-18.46,1.98-.64,4-1.01,6.04-1.25-3.22-29.35,36.73-59.64,79.89-59.64,2.92,0,5.85.14,8.79.43-19.12-45.37,32.17-73.48,32.17-73.48,0,0-102.26-82.12-129.46-111.56-13.39-14.49-.74-60.98,45.43-60.98,7.39,0,15.64,1.19,24.77,3.89,34.14,10.1,77.7,34.42,116.51,63.98,37.82-76.54,80.21-110.48,110.26-110.48m0-15.31c-37.78,0-80.29,38.11-115.61,102.87-36.96-26.17-75.95-46.61-106.82-55.74-10.14-3-19.94-4.52-29.11-4.52-27.72,0-50.44,14.1-60.78,37.73-7.9,18.06-6.25,37.73,4.11,48.94,21.4,23.16,85.7,76.2,115.62,100.56-14.73,13.39-28.48,33.84-26.5,58.87-26.7,2.59-52.32,14.74-68.68,32.99-8.18,9.12-13.38,19.28-15.27,29.53-9.18,3.59-22.23,10.9-29.1,24.86-3.77,7.67-7.62,15.33-11.46,23-12.95,25.82-26.34,52.51-37.24,80.02-11.51,29.04-2.1,59.5,22.9,74.07,2.99,1.74,6.19,3.2,9.53,4.35-.17,2.9-.28,5.83-.33,8.79-.35,22.74,9.62,45.06,28.81,64.55,34.81,35.35,94.25,56.45,158.99,56.45,88.08,0,174.26-38.45,242.69-108.27,30.1-30.71,48.58-71.85,53.45-118.98,4.38-42.42-2.7-88.75-19.95-130.46-5.47-13.22-10.1-25.16-14.58-36.71-17.95-46.26-31.23-80.47-69.06-118.63,27.05-65.04,31.05-119.64,10.77-150.84-9.82-15.11-24.87-23.43-42.37-23.43h0Z"/>
  </g>
  <path class="cls-2" d="m725.73,581.39c-29.04-70.21-36.67-109.53-87.72-157.57,78.63-176.93-35.04-231.42-123.65-52.11-38.8-29.55-82.37-53.88-116.51-63.98-66.22-19.6-85.73,40.28-70.2,57.08,27.2,29.44,129.46,111.56,129.46,111.56,0,0-51.29,28.1-32.17,73.48-46.35-4.53-92.12,27.88-88.68,59.22-2.03.24-4.05.6-6.04,1.25-9.55,3.09-19.42,9.14-24.01,18.46-16.54,33.63-34.38,67.03-48.21,101.91-7.89,19.89-3.39,43.68,16.38,55.2,5.66,3.3,11.99,4.99,18.38,5.32-.88,6.54-1.46,13.59-1.58,21.28-1.46,96.13,231.26,178.3,404.25,1.78,58.67-59.86,62.32-155.42,30.29-232.88Z"/>
  <path class="cls-1" d="m429.56,563.06c12.71,10.88,25.16,22.76,35.51,35.93,2.83,3.61,5.49,7.51,7.58,11.64.89,1.77.36.56,1.05,2.63.55,1.66,1.1,3.33,1.63,5,3.31,10.37,6.53,20.77,10.1,31.05,4.14,11.91,8.33,24.44,15.03,35.2,5.85,9.39,20.75.75,14.87-8.69-5.62-9.03-9.17-19.34-12.67-29.32-3.73-10.61-7.07-21.34-10.47-32.06-2.59-8.16-5.78-15.48-10.91-22.42-7.05-9.55-15.18-18.24-23.66-26.53-5.14-5.02-10.4-9.94-15.86-14.62-3.53-3.02-8.71-3.47-12.18,0-3.1,3.1-3.55,9.14,0,12.18h0Z"/>
  <path class="cls-1" d="m536.22,389.94c6.04,2.37,9.82,4.04,16.41,6.99,7.2,3.22,14.35,6.55,21.48,9.94,11.43,5.45,22.96,10.88,33.94,17.19,9.62,5.54,18.3-9.34,8.69-14.87-11.27-6.49-23.12-12.05-34.86-17.63-13.52-6.43-27.14-12.76-41.08-18.23-4.33-1.7-9.45,1.87-10.59,6.01-1.34,4.88,1.67,8.88,6.01,10.59h0Z"/>
  <path class="cls-1" d="m596.82,632.17c-10.13-16.92-18.03-34.84-22.72-54.03-2.63-10.73-3.37-22.02-6.48-32.61-4.07-13.88-14.33-26.04-24.15-36.28-11.06-11.54-23.5-21.7-36.29-31.24-7.04-5.25-14.23-10.36-21.69-15.01-9.43-5.87-18.09,9.02-8.69,14.87,18.15,11.3,35.41,24.63,50.62,39.63,8.9,8.77,19.86,20.34,23.35,31.84,3.07,10.1,3.8,20.92,6.19,31.2,4.96,21.32,13.75,41.56,24.97,60.32,5.69,9.5,20.58.85,14.87-8.69h0Z"/>
  <path class="cls-1" d="m347.31,629.45c-3.82-2.95,1,.82,1.92,1.57,2.59,2.1,5.15,4.24,7.67,6.43,6.68,5.78,13.24,11.83,18.96,18.58,5.88,6.94,9.65,16.55,12.72,25.52,4,11.69,7.59,23.59,13.81,34.35,5.55,9.59,20.43.93,14.87-8.69-11.79-20.38-13.63-44.92-29.22-63.35-9.32-11.02-20.64-20.47-32.04-29.27-3.68-2.84-9.64-.56-11.78,3.09-2.6,4.45-.6,8.93,3.09,11.78h0Z"/>
  <path class="cls-1" d="m349.83,732.84c-1.36-.19-2.63-.51-3.92-.96,1.98.69.23.05-.24-.23-.54-.31-1.05-.66-1.56-1.02,1.75,1.26.27.12-.11-.25-.43-.43-.82-.89-1.22-1.35,1.43,1.61.24.26-.06-.21-.37-.59-.68-1.22-1.02-1.83-.91-1.64.02.48-.06-.12-.07-.55-.38-1.13-.53-1.67s-.18-1.16-.38-1.67c-.27-.69.06,2.02.02.08-.01-.54-.05-1.07-.04-1.61,0-.34.19-2.24-.01-.65-.2,1.56.09-.22.18-.55.14-.53.33-1.04.53-1.54,1.28-3.13-.66-7.18-3.09-9.05-2.96-2.28-6.28-2.1-9.56-.67-23.16,10.08-32.63,36.26-37.36,59.21-.91,4.4,1.28,9.51,6.01,10.59,4.3.98,9.62-1.3,10.59-6.01,1.06-5.15,2.29-10.27,3.84-15.29.8-2.59,1.68-5.15,2.67-7.67.08-.2.84-2.08.4-1.02-.41.98.5-1.11.6-1.34.56-1.23,1.15-2.44,1.77-3.63,1.23-2.37,2.59-4.67,4.11-6.87.34-.5.71-.97,1.05-1.47.56-.83-.85.98.19-.25.93-1.1,1.85-2.19,2.85-3.22.83-.86,1.7-1.69,2.59-2.47.54-.47,1.09-.94,1.65-1.38-.95.75-.34.27.28-.17,2.33-1.63,4.82-2.98,7.42-4.12-4.22-3.24-8.43-6.48-12.65-9.72-2.74,6.68-1.05,14.77,2.03,20.99,3.49,7.04,10.58,12.65,18.43,13.76,4.44.63,9.47-1.08,10.59-6.01.93-4.07-1.24-9.91-6.01-10.59h0Z"/>
  <path class="cls-1" d="m431.26,222.29c6.28,3.39,12.6,6.72,19.02,9.85,6.42,3.13,13.59,7.32,20.76,8.32,4.72.66,9.08-1.09,10.59-6.01,5.07-16.52,16.62-30.23,22.29-46.62,5.36-15.48,8.64-34.77,2.87-50.59-5.67-15.53-19.95-25.81-36.73-23.06-17.63,2.88-28.53,17.86-37.63,31.78,3.93-1.03,7.85-2.06,11.78-3.09-16.98-12.88-50.61-19.69-63.96,1.68-12.75,20.41-3.34,48.77,18.55,58.13,4.27,1.83,9.23,1.27,11.78-3.09,2.12-3.62,1.21-9.94-3.09-11.78-13.14-5.62-21-21.56-12.37-34.57,3.91-5.89,13.11-5.5,19.38-4.63,7.79,1.08,14.8,4.4,21.02,9.12,3.84,2.91,9.48.43,11.78-3.09,6.31-9.64,13.98-22.07,26.55-23.74,12.27-1.63,18.08,11.47,18.52,21.68.58,13.4-2.85,27.42-8.66,39.45-6.15,12.73-14.49,24.19-18.68,37.83,3.53-2,7.06-4.01,10.59-6.01-6.39-.89-11.92-4.26-17.71-7.11-6.05-2.98-12.02-6.12-17.96-9.33-9.75-5.27-18.45,9.59-8.69,14.87h0Z"/>
  <path class="cls-1" d="m395.55,227.46c-3.71,6.9-7.86,13.55-12.43,19.91-1.23,1.71-1.41,4.68-.87,6.63.55,2,2.09,4.16,3.96,5.15,2,1.06,4.42,1.58,6.63.87.69-.29,1.37-.58,2.06-.87,1.29-.77,2.32-1.79,3.09-3.09,4.57-6.36,8.72-13.01,12.43-19.91,1.08-2.01,1.48-4.4.87-6.63-.55-2-2.09-4.16-3.96-5.15-4-2.12-9.5-1.15-11.78,3.09h0Z"/>
  <path class="cls-1" d="m353.41,115.08c-9.03-4.06-17.88-8.51-26.53-13.34-3.93-2.19-9.58-1.08-11.78,3.09-2.14,4.06-1.11,9.44,3.09,11.78,8.65,4.82,17.5,9.27,26.53,13.34,2.18.98,4.24,1.53,6.63.87,2-.55,4.16-2.09,5.15-3.96,1.06-2,1.58-4.42.87-6.63-.65-2-1.95-4.24-3.96-5.15h0Z"/>
  <path class="cls-1" d="m518.43,99.38c5.91-6.07,11.27-12.69,16.09-19.65,1.21-1.76,1.42-4.64.87-6.63-.55-2-2.09-4.16-3.96-5.15-2-1.06-4.42-1.58-6.63-.87-2.23.72-3.81,2.03-5.15,3.96-1.43,2.06-2.91,4.09-4.44,6.07.45-.58.9-1.16,1.35-1.74-3.21,4.14-6.65,8.09-10.3,11.84-1.55,1.59-2.52,3.85-2.52,6.09,0,2.11.94,4.63,2.52,6.09,1.64,1.51,3.79,2.62,6.09,2.52,2.27-.1,4.47-.86,6.09-2.52h0Z"/>
  <path class="cls-1" d="m328.47,193.13c-9.35,2.02-18.31,5.08-27.1,8.81-1.84.78-3.45,3.32-3.96,5.15-.57,2.06-.31,4.8.87,6.63,1.19,1.84,2.95,3.46,5.15,3.96.76.1,1.53.21,2.29.31,1.55,0,3-.4,4.35-1.18l.43-.18c-.69.29-1.37.58-2.06.87,7.95-3.34,16.18-5.94,24.61-7.76,4.41-.95,7.39-6.34,6.01-10.59-1.5-4.64-5.87-7.03-10.59-6.01h0Z"/>
  <path class="cls-1" d="m543.45,181.61c8.2.03,16.32-.7,24.43-1.88,1.98-.29,4.18-2.31,5.15-3.96,1.08-1.85,1.54-4.57.87-6.63-.67-2.08-1.97-4.09-3.96-5.15-.69-.29-1.37-.58-2.06-.87-1.53-.41-3.05-.41-4.58,0-.57.08-1.15.16-1.73.24.76-.1,1.53-.21,2.29-.31-6.77.9-13.58,1.35-20.41,1.33-4.5-.01-8.82,3.97-8.61,8.61.21,4.68,3.78,8.59,8.61,8.61h0Z"/>
</svg>