<?xml version="1.0" encoding="UTF-8"?>
<svg id="Layer_1" data-name="Layer 1" xmlns="http://www.w3.org/2000/svg" viewBox="0 0 1000 1000">
  <defs>
    <style>
      .cls-1 {
        fill: #7b8388;
      }

      .cls-2 {
        fill: #e2e9ef;
      }
    </style>
  </defs>
  <g>
    <path class="cls-1" d="m368.33,828.22c-101.62,0-196.81-81.14-207.86-177.18-8.49-73.84,24.68-123.35,56.75-171.25,27.38-40.87,53.24-79.48,48-129.65-.02-.22-.04-.44-.04-.67-.49-16.69-8.84-30.69-17.67-45.51-7.83-13.12-15.93-26.69-18.81-42.81-.11-.63-.16-1.28-.14-1.92,1.4-37.05,36.33-59.12,68.19-63.94,5.68-1.15,11.83-1.76,17.85-1.76,54.57,0,94.55,48.91,108.65,99.92,85.11-81.84,171.88-121.68,264.8-121.68h1.71c47.43.26,75.79,34.7,78.39,66.97,2.52,31.24-17.55,55.06-51.12,60.7-31.34,5.26-58.5,17.83-78.23,29.44,22.19-3.19,45.61-4.8,70.04-4.8,16.65,0,34.05.75,51.73,2.23,35.27,2.95,54.8,33.44,55.86,62.02.83,22.35-9.18,46.58-32.45,59.9,30.39,15.69,44.35,46,46.92,70.95,2.31,22.46-3.65,42.1-15.67,54.18,8.74,5.99,15.46,14.15,19.78,24.11,11.06,25.53,4.59,58.15-5.15,80.16-11.25,24.56-35.28,36.44-73.49,36.44h0c-15.78,0-32.14-1.91-46.57-3.6-4.74-.56-9.32-1.09-13.67-1.54-8.03-.82-15.95-1.23-23.54-1.23-60.47,0-101,26.34-147.93,56.84-23.04,14.98-46.87,30.46-75.54,44.82-24.99,12.52-52.17,18.86-80.77,18.86Z"/>
    <path class="cls-1" d="m688.02,180.78c.55,0,1.12,0,1.67,0,75.48.4,97.77,97.72,25.83,109.79-56.49,9.48-102.01,42.5-116.4,55.32,30.49-7.82,66.76-12.81,109.71-12.81,16.04,0,33.02.7,50.97,2.2,59.6,4.99,68.63,101.56-3.57,113.06,74.18,13.49,82.88,109.37,41.38,126.17,42.02,14.71,39.19,65.13,23.98,99.47-11.4,24.87-37.32,31.09-65.26,31.09-20.31,0-41.7-3.29-59.32-5.09-8.52-.87-16.65-1.28-24.46-1.28-92.7,0-139,58.3-227.5,102.61-24.58,12.31-50.72,17.91-76.74,17.91-94.76,0-187.99-74.26-198.92-169.21-15.48-134.55,116.47-188.53,104.76-300.8-1.01-34.72-30.88-57.55-36.63-89.64,1.19-31.48,32.21-51.09,60.54-55.38,5.64-1.13,11.14-1.66,16.5-1.66,55.3,0,94.81,57.08,103.38,108.74,72.88-73.49,161.07-130.49,270.05-130.49m0-18h0c-91.55,0-177.06,37.47-260.61,114.38-18.1-49.03-58.79-92.63-112.82-92.63-6.48,0-13.07.65-19.62,1.93-35.3,5.5-73.83,30.44-75.41,72.43-.05,1.29.04,2.58.27,3.85,3.18,17.74,11.7,32.02,19.94,45.84,8.58,14.38,15.99,26.8,16.41,41.15.01.45.04.9.09,1.34,4.89,46.93-18.94,82.51-46.53,123.71-31.45,46.95-67.08,100.16-58.21,177.28,5.74,49.93,32.16,96.8,74.38,131.98,40.55,33.79,92.46,53.17,142.42,53.17,30.01,0,58.54-6.67,84.8-19.81,29.13-14.58,53.17-30.21,76.41-45.32,47.61-30.95,85.22-55.39,143.02-55.39,7.29,0,14.9.4,22.63,1.19,4.31.44,8.84.97,13.53,1.52,14.68,1.72,31.31,3.66,47.62,3.66s62.57,0,81.63-41.59c.03-.07.06-.14.1-.21,13.62-30.76,15.56-63.43,5.19-87.38-3.67-8.47-8.82-15.8-15.28-21.84,9.59-13.82,14.04-32.75,11.87-53.79-2.45-23.87-14.41-52.2-39.52-70.53,18.06-15.7,25.88-38.47,25.09-59.74-1.21-32.54-23.62-67.26-64.1-70.66-17.92-1.5-35.58-2.26-52.48-2.26-6.38,0-12.7.11-18.94.32,9.01-2.94,18.59-5.4,28.61-7.09,43.81-7.35,61-40.6,58.61-70.3-2.92-36.27-34.52-74.96-87.32-75.24h-1.77Z"/>
  </g>
  <path class="cls-2" d="m797.62,574.52c41.5-16.81,32.8-112.69-41.38-126.17,72.2-11.5,63.17-108.07,3.57-113.06-66.02-5.53-118.8-.13-160.69,10.61,14.39-12.82,59.92-45.84,116.4-55.32,71.93-12.07,49.65-109.38-25.83-109.79-109.76-.59-198.47,56.62-271.73,130.48-9.4-56.66-56.02-119.85-119.88-107.07-28.33,4.29-59.35,23.89-60.54,55.38,5.75,32.1,35.61,54.92,36.63,89.64,11.71,112.28-120.24,166.25-104.76,300.8,13.92,121.03,161.56,208.43,275.66,151.3,95.95-48.04,142.28-112.52,251.96-101.32,41.87,4.28,104.9,16.95,124.58-26,15.2-34.34,18.04-84.77-23.98-99.47Z"/>
  <path class="cls-1" d="m402.11,557.66c-4.75,30.67-21.86,57.49-48.5,72.65-23.53,13.4-52.93,16.27-76.98,4.08-15.59-7.91-27.31-20.58-35.91-35.97-6.36-11.38-23.86-1.18-17.49,10.22,17.71,31.66,49,53.27,85.85,53.72,33.73.42,66.8-16.47,87.65-42.72,13.06-16.44,21.68-35.84,24.9-56.61.84-5.4-1.37-10.89-7.07-12.45-4.8-1.32-11.61,1.64-12.45,7.07h0Z"/>
  <path class="cls-1" d="m294.66,710.36c8.74,32.15,28.33,64.38,62.06,74.27,5.08,1.49,11.25-1.8,12.45-7.07,1.24-5.42-1.63-10.86-7.07-12.45-1.52-.45-3.03-.93-4.52-1.49-.36-.14-2.8-1.22-.53-.17-.73-.33-1.46-.65-2.18-1-2.91-1.41-5.71-3.05-8.38-4.88-.68-.47-1.34-.95-2.01-1.44-1.73-1.25,1.2,1.08-.57-.46-1.17-1.02-2.36-2-3.49-3.06-2.55-2.38-4.94-4.94-7.16-7.63-.48-.58-.95-1.16-1.41-1.75,1.25,1.61-.36-.53-.61-.87-1.09-1.51-2.13-3.06-3.13-4.64-2.09-3.29-3.98-6.69-5.7-10.19-3.33-6.76-5.93-14.08-8.23-22.54-1.43-5.28-7.19-8.52-12.45-7.07-5.3,1.46-8.51,7.16-7.07,12.45h0Z"/>
  <path class="cls-1" d="m506.69,427.67c2.24-4.19,4.72-8.23,7.48-12.1.62-.87,1.25-1.73,1.89-2.57-.81,1.05,1.12-1.38,1.36-1.66,1.42-1.73,2.9-3.41,4.42-5.05,2.93-3.17,6.04-6.18,9.27-9.03,1.55-1.37,3.15-2.69,4.75-4,.36-.3.73-.58,1.1-.88-.14.11-1.13.86-.22.17.85-.64,1.7-1.28,2.56-1.91,5.74-4.18,11.79-7.94,18.05-11.3,2.63-1.41,5.29-2.74,7.99-4,1.02-.48,2.06-.94,3.09-1.4.4-.18,2.16-.88.43-.2s.35-.14.72-.29c2.09-.85,4.21-1.68,6.37-2.36,5.22-1.63,8.56-7.05,7.07-12.45-1.41-5.15-7.22-8.71-12.45-7.07-22.64,7.09-44.53,21.3-60.96,38.19-8,8.23-14.99,17.57-20.41,27.69-2.58,4.82-1.21,11.02,3.63,13.85,4.6,2.69,11.26,1.2,13.85-3.63h0Z"/>
  <path class="cls-1" d="m545.97,508.87c22.52-21.12,53.24-31.93,82.72-39.08,25.82-6.26,50.3-9.47,76.71-10.87,5.33-.28,10.67-.52,16-.51,13.03.03,13.05-20.22,0-20.25-15.72-.04-31.55,1.34-47.14,3.2-32.65,3.9-65.13,10.58-95.49,23.5-17.2,7.32-33.43,16.85-47.12,29.68-9.53,8.93,4.81,23.23,14.32,14.32h0Z"/>
  <path class="cls-1" d="m540.72,623.58c62.32-38.06,140.04-46.49,211.64-40.12,4.32.39,8.64.87,12.95,1.38,3.02.36-1.82-.29-.21-.03.5.08,1,.14,1.5.21.41.06.82.12,1.22.19,5.39.88,10.9-1.4,12.45-7.07,1.33-4.83-1.64-11.57-7.07-12.45-17.98-2.92-36.39-3.92-54.58-4.17-39.43-.55-79.42,3.55-117.45,14.26-24.72,6.96-48.73,16.93-70.67,30.33-11.1,6.78-.94,24.3,10.22,17.49h0Z"/>
  <path class="cls-1" d="m414.72,461.31c3.65-23.22.08-49.28-15.65-67.5-.68,5.3-1.37,10.6-2.05,15.9,23.28-13.3,38.39-39.03,34.42-66.13-.79-5.42-7.65-8.39-12.45-7.07-5.81,1.6-7.87,7.02-7.07,12.45-.83-5.7-.05,1.68-.08,3.28-.03,1.75-.15,3.5-.33,5.24-.14,1.16-.13,1.13.02-.08-.1.61-.2,1.23-.32,1.84-.28,1.3-.54,2.59-.87,3.88-3.23,12.33-11.77,22.38-23.53,29.11-6,3.43-6.22,11.07-2.05,15.9,7.25,8.4,10.05,20.02,10.74,30.86.28,4.46.27,8.93-.02,13.39-.09,1.37-.24,2.72-.36,4.09-.26,3.01.22-1.4.08-.53-.85,5.4,1.38,10.89,7.07,12.45,4.81,1.32,11.6-1.64,12.45-7.07h0Z"/>
</svg>