<?xml version="1.0" encoding="UTF-8"?>
<svg id="Layer_1" data-name="Layer 1" xmlns="http://www.w3.org/2000/svg" viewBox="0 0 1000 1000">
  <defs>
    <style>
      .cls-1 {
        fill: #7b8388;
      }

      .cls-2 {
        fill: #e2e9ef;
      }
    </style>
  </defs>
  <path class="cls-1" d="m868.89,397.29c-11.22-29.74-33.04-50.56-64.86-61.88-.58-.21-1.18-.39-1.78-.53-3.61-.88-7.21-1.46-10.75-1.75-29.68-55.86-115.74-65.2-185.79-72.8-3.49-.38-6.93-.75-10.32-1.13-21.17-14.95-48.13-22.83-78.34-22.83-18.47,0-37.76,2.82-57.33,8.4-20.23,5.76-33.54,17.72-46.41,29.29-18.68,16.79-36.32,32.64-79.46,32.64-3.16,0-6.47-.09-9.82-.26-16.42-.85-32.22-10.14-48.94-19.98-20.39-12-43.5-25.6-71.86-25.6h-.64c-39.31.29-68.12,19.89-77.06,52.45-11.02,40.15,10.53,88.46,50.15,112.38,35.84,21.64,79.45,32.16,133.31,32.16,35.13,0,69.75-4.24,103.41-8.82-.49,4.68-1.81,9.01-4.47,12.17-5.19,6.18-16.29,9.32-33,9.32-8.02,0-16.03-.73-22.47-1.32l-3.45-.31c-10.68-.93-21.85-2.63-33.69-4.44-19.13-2.91-38.91-5.92-58.64-5.92-27.71,0-50.33,6.2-69.14,18.96-47.89,32.47-45.76,67.53-40.24,85.53,13.75,44.77,74.42,75.34,124.74,77.32,17.38,31.15,54.2,46.91,109.7,46.91,6.83,0,13.94-.22,21.75-.68,14.05,31.32,48.76,47.62,79.89,47.62,3.85,0,7.69-.25,11.41-.74,15.02-1.99,29.69-4.57,43.76-7.71,18.39,24.27,47.34,37.92,81.39,37.92,13.98,0,28.93-2.26,44.46-6.72,80.22-23.04,139.88-106.4,161.81-141.17.18-.28.35-.57.51-.86,12.36-22.25,72.48-137.31,42.17-217.6Z"/>
  <path class="cls-2" d="m798,352.36c-6.62-1.61-12.68-1.82-18.13-.94-20.63-60.39-120.18-66.85-191.29-74.89-34.26-26.77-82.55-26.25-123.92-14.47-44.88,12.78-51.06,67.01-141.55,62.34-43.33-2.24-74.78-45.88-120.38-45.56-83.14.6-76.1,96.18-17.73,131.42,72.09,43.53,164.84,29.15,244.19,18.28,12.15,69.43-53.74,60.7-81.73,58.26-48.99-4.27-106.59-23.74-149.8,5.56-88.78,60.2,9.48,134.1,85.89,129.88,18.49,50.73,88.28,49.1,132.7,45.33,6.89,34.64,45.33,52.09,76.2,48,19.17-2.54,37.25-6,54.27-10.3,16.32,29.7,53.26,51.42,112.72,34.34,63.72-18.3,118.1-80.42,151.55-133.47,39.08-70.35,91.56-216.57-12.98-253.79Z"/>
  <path class="cls-1" d="m290.52,596.26c-1.16-4.77-1.68-9.34-1.33-14.29.22-3.04,1.72-8.46,3.15-11.12,3.78-7.08,9.2-12.32,15.99-16.52,13.95-8.64,30.78-12.68,46.59-12.42,9.67.16,19.33,1.88,29.01,2.34,11.53.55,23.11.45,34.62-.47,22.42-1.79,45.27-6.18,65.24-16.95,21.94-11.83,36.11-31.42,38.97-56.27.63-5.44-5.1-10.12-10.12-10.12-5.99,0-9.5,4.67-10.12,10.12-2.12,18.46-14.65,31.59-31.16,39.94-19.05,9.63-41.68,12.8-62.92,13.63-11.46.45-22.95.16-34.38-.76-8.64-.7-17.11-2.08-25.8-1.54-18.74,1.16-38.41,6.53-53.88,17.49-20.76,14.71-29.42,37.47-23.39,62.32,3.07,12.66,22.6,7.3,19.53-5.38h0Z"/>
  <path class="cls-1" d="m428.76,638.08c-1.57-19.08,3.73-37.33,17.34-50.9,12.02-11.99,29.11-19.29,45.44-20.39,9.04-.61,16.5.1,24.99,2.77,8.3,2.61,16.39,4.54,25.14,5.06,18.04,1.07,37.1-3.25,52.49-12.85,20.85-13.01,32.24-34.21,34.75-58.31.57-5.45-5.06-10.12-10.12-10.12-5.95,0-9.56,4.66-10.12,10.12-1.88,18.03-11.6,33.3-26.77,42.06-7.28,4.2-14.64,6.61-23.26,8.1-3.14.54-7.15.86-11.25.9-3.62.03-8.73-.3-10.79-.62-8.24-1.27-15.85-4.72-24.06-6.11-10.01-1.7-19.8-1.7-29.84-.24-18.96,2.77-37.32,11.76-50.91,25.31-17.23,17.19-25.25,41.1-23.27,65.22.45,5.45,4.33,10.12,10.12,10.12,5.13,0,10.57-4.64,10.12-10.12h0Z"/>
  <path class="cls-1" d="m699.23,343.51c-37.63-.05-76.25,10.34-110.71,25.15-5.03,2.16-6.15,9.55-3.63,13.85,3.04,5.19,8.81,5.8,13.85,3.63,1.04-.45-3.12,1.26-1.5.64.71-.27,1.41-.58,2.11-.86,2.22-.89,4.45-1.75,6.69-2.59,8.05-3.01,16.21-5.73,24.45-8.17,22.33-6.62,45.37-11.42,68.74-11.39,13.03.02,13.05-20.23,0-20.25h0Z"/>
  <path class="cls-1" d="m596.32,387.16c4.48-.98,8.99-3.3,12.75-5.87,9.46-6.47,16.07-15.62,19.76-26.45,2.73-8.03,3.52-16.83,3.22-25.26-.19-5.29-4.52-10.38-10.12-10.12-5.33.24-10.32,4.46-10.12,10.12.13,3.56.06,7.13-.31,10.67-.04.34-.18.93-.15,1.29-.18-1.95.26-1.71.09-.81-.13.7-.24,1.41-.38,2.12-.3,1.52-.66,3.03-1.09,4.51-.38,1.3-.8,2.58-1.29,3.84-.09.24-.2.48-.29.72-.41,1.17.98-2.11.43-1.02-.3.58-.55,1.19-.84,1.78-1.06,2.12-2.33,4.06-3.68,6-.88,1.26,1.77-2.12.42-.56-.31.36-.61.73-.92,1.08-.69.78-1.4,1.52-2.15,2.24-.61.59-1.25,1.16-1.9,1.7-.68.57-2.27,1.57.7-.5-.36.25-.71.53-1.07.79-1.25.89-2.56,1.7-3.92,2.43-.53.28-1.06.55-1.59.81-.25.12-.5.22-.74.34-1.56.76,2.61-1.02,1.34-.56-1.16.42-2.31.91-3.52,1.17-5.18,1.13-8.69,7.44-7.07,12.45,1.76,5.45,6.9,8.29,12.45,7.07h0Z"/>
  <path class="cls-1" d="m437.35,395.24c-.06-.35-.12-.7-.17-1.05l.23,1.63c-.18-.44-.1-1.13-.13-1.61-.06-1.19-.06-2.37,0-3.56.03-.56.06-1.11.11-1.66.04-.4.33-2.49.03-.6s.04-.21.11-.6c.09-.56.2-1.11.31-1.67.88-4.39,2.26-8.68,3.9-12.84.19-.47.38-.94.57-1.41.73-1.8-1.03,2.35-.26.62.37-.83.74-1.67,1.12-2.5.65-1.4,1.33-2.78,2.04-4.15.68-1.31,1.38-2.62,2.14-3.88,2.74-4.54,1.15-11.32-3.63-13.85-4.91-2.59-10.93-1.21-13.85,3.63-3.16,5.23-5.64,10.95-7.84,16.62-3.99,10.28-6.12,21.29-4.2,32.25.91,5.23,7.6,8.64,12.45,7.07,5.63-1.82,8.05-6.85,7.07-12.45h0Z"/>
  <path class="cls-1" d="m555.01,679.2c1.06-8.1,3.62-16.86,6.99-23.23.77-1.45,1.59-2.88,2.47-4.27.51-.81,1.06-1.6,1.6-2.4.09-.13,1.97-2.6.68-.97,2.28-2.87,4.86-5.51,7.63-7.91,9.05-7.85,21.99-12.83,35.31-16.73,29.82-8.74,62.44-13.2,86.35-34.87,15.93-14.44,24.34-34.93,27.55-55.83.83-5.4-1.37-10.89-7.07-12.45-4.79-1.32-11.62,1.63-12.45,7.07-2.76,17.97-8.71,33.88-20.92,45.57-9.93,9.51-23.17,15.31-36.9,19.62-29.25,9.18-62.16,12.48-86.18,33.31-15.68,13.6-22.66,33.04-25.29,53.1-.71,5.43,5.16,10.12,10.12,10.12,6.06,0,9.41-4.68,10.12-10.12h0Z"/>
</svg>