<?xml version="1.0" encoding="UTF-8"?>
<svg id="Layer_1" data-name="Layer 1" xmlns="http://www.w3.org/2000/svg" viewBox="0 0 1000 1000">
  <defs>
    <style>
      .cls-1, .cls-2 {
        fill: #7b8388;
      }

      .cls-3 {
        fill: #e2e9ef;
      }

      .cls-3, .cls-2 {
        fill-rule: evenodd;
      }
    </style>
  </defs>
  <g>
    <path class="cls-2" d="m430.45,838.2c-52.43,0-101.47-11.73-141.82-33.93-51.95-28.58-95.6-100.55-111.89-184.07-.32-.52-.61-1.07-.85-1.65-.19-.46-.34-.92-.47-1.39l-113.81-155.1c-10.54-13.25-16.25-28.82-16.23-44.68.03-45.71,30.13-76.42,74.9-76.42,11.19,0,22.58,1.99,33.86,5.92,31.52,10.97,61.54,45.23,88.03,75.45,10.77,12.29,21.04,24.02,30.23,32.77,13.85-9,28.95-18.98,45.19-29.72,111.83-73.92,280.82-185.64,387.6-206.38,4.61-.89,9.45-1.35,14.4-1.35,22.19,0,44.23,8.86,53.56,20.89,7.47-3.25,14.19-6.56,20.31-9.59,15.07-7.44,28.09-13.87,43.56-15.38,2.36-.23,4.78-.35,7.21-.35,21.23,0,43.37,8.56,54.59,20.55,6.15.64,13.32,3.25,20.54,7.5,8.08,4.76,15.36,11.15,21.05,18.47,6.98,8.95,11.44,19,13.27,29.86,2.54,15.06-.1,31.01-7.84,47.51,31.59,45.8-30.14,124.03-132.42,226.67-29.23,29.33-61.24,60.06-92.2,89.78l-1.68,1.61c-13.8,60.79-62.25,114.67-133.5,148.36-46.02,21.77-97.78,33.73-149.67,34.6-1.97.03-3.94.05-5.92.05Z"/>
    <path class="cls-1" d="m844.21,224.26c19.98,0,41.72,8.89,49.06,20.22l.28.43.48-.09c.58-.11,1.22-.16,1.91-.16,4.37,0,10.93,2.08,17.82,6.13,6.21,3.66,12.65,8.93,17.96,15.74,5.29,6.79,9.45,15.12,11.1,24.92,2.19,12.97,0,28.53-9.74,46.53l-.28.51.39.42c35.81,38.88-33.49,122.7-127.56,217.11-29.08,29.18-60.55,59.39-92.02,89.61l-4.11,3.94-.05.25c-12.97,63.05-63.29,113.12-128.1,143.77-44.08,20.84-94.85,32.7-145.15,33.54-1.92.03-3.83.05-5.74.05-48.32,0-95.95-10.26-136.49-32.57-53.78-29.59-93.11-104.16-107.12-180.42l-.74.15.64-.42-116.21-158.38c-9.71-12.21-14.11-25.52-14.1-38.15.03-43.3,29.13-65.4,63.87-65.4,9.81,0,20.06,1.76,30.24,5.3,43.77,15.24,87.85,83.62,120.37,111.31l.41.35.46-.3c105.44-68.05,313.09-215.05,435.53-238.83,4.06-.79,8.19-1.15,12.29-1.15,21.52,0,42.14,9.88,46.47,19.22.56,1.21.99,2.54,1.27,3.97l.18.9.83-.32c30.53-11.9,48.09-25.78,69.76-27.91,2.01-.2,4.06-.29,6.13-.29m0-22.05h0s0,0,0,0c-2.8,0-5.59.13-8.28.4-17.47,1.71-31.99,8.88-47.36,16.47-4.18,2.06-8.44,4.16-12.92,6.25-14.15-12.23-37.07-18.69-56.07-18.69-5.65,0-11.2.52-16.5,1.55-108.93,21.16-279.01,133.59-391.56,208-13.24,8.75-25.97,17.16-37.66,24.81-7.26-7.51-15.18-16.55-23.39-25.92-27.39-31.25-58.42-66.67-92.7-78.6-12.45-4.33-25.06-6.53-37.49-6.53-50.55,0-85.89,35.95-85.92,87.43-.01,18.25,6.42,36.06,18.61,51.53l112.55,153.39c.07.17.13.34.2.51.17.4.34.79.53,1.17,17.33,87.13,61.87,159.58,117.07,189.95,41.97,23.09,92.84,35.3,147.12,35.3,2.04,0,4.07-.02,6.11-.05,53.44-.89,106.77-13.22,154.21-35.65,73.11-34.58,123.31-89.93,138.77-152.63,30.92-29.69,62.71-60.21,91.7-89.31,83.41-83.71,168.2-176.78,137-235.26,6.83-16.67,8.95-32.94,6.32-48.54-2.14-12.68-7.33-24.39-15.44-34.8-6.54-8.4-14.89-15.72-24.15-21.18-7.05-4.15-14.22-7-20.86-8.33-15.11-13.98-39.95-21.25-59.88-21.25h0Z"/>
  </g>
  <g id="Hold">
    <path class="cls-3" d="m186.82,614.19c14.01,76.25,53.34,150.83,107.12,180.42,42.15,23.19,91.96,33.36,142.23,32.52,50.3-.84,101.07-12.7,145.15-33.54,64.81-30.65,115.13-80.73,128.1-143.77l.05-.25,4.11-3.94c31.47-30.21,62.95-60.43,92.02-89.61,94.07-94.41,163.37-178.23,127.56-217.11l-.39-.42.28-.51c9.74-18.01,11.93-33.56,9.74-46.53-1.65-9.8-5.81-18.13-11.1-24.92-5.3-6.81-11.75-12.08-17.96-15.74-7.98-4.7-15.53-6.74-19.73-5.97l-.48.09-.28-.43c-8.09-12.5-33.72-22.03-55.18-19.93-21.67,2.13-39.22,16.01-69.76,27.91l-.83.32-.18-.9c-.28-1.43-.71-2.76-1.27-3.97-5.16-11.12-33.39-23.01-58.76-18.08-122.44,23.78-330.09,170.78-435.53,238.83l-.46.3-.41-.35c-32.51-27.68-76.6-96.07-120.37-111.31-46.22-16.09-94.07,4.57-94.11,60.09,0,12.63,4.39,25.94,14.1,38.15l116.21,158.38-.64.42.74-.15Z"/>
    <path class="cls-2" d="m409.17,713.53c-5.3.82-10.26-2.81-11.08-8.11-.82-5.3,2.81-10.26,8.11-11.08,8.48-1.32,16.47-1.99,23.96-1.99s15.09.68,22.24,2.03c5.28.99,8.75,6.07,7.76,11.34-.99,5.28-6.07,8.75-11.34,7.77-5.81-1.09-12.03-1.64-18.67-1.64s-13.82.56-20.99,1.68h0Zm-8.32-229.67h0c-5.36.34-9.98-3.74-10.31-9.1-.34-5.36,3.74-9.98,9.1-10.31,38.01-2.45,70.2,3.88,96.63,18.9,26.59,15.11,47.05,38.82,61.43,71.04,2.19,4.9-.01,10.64-4.91,12.83-4.9,2.19-10.64-.01-12.83-4.91-12.65-28.34-30.39-49.05-53.28-62.06-23.06-13.1-51.65-18.59-85.82-16.39h0Zm327.88-70.73h0c21.52-13.86,41.56-28.92,60.21-42.93,53.48-40.18,96.27-72.32,134.04-47.99,4.52,2.9,5.83,8.92,2.93,13.44-2.9,4.52-8.92,5.83-13.44,2.93-26.45-17.04-64.43,11.49-111.89,47.15-16.9,12.69-34.92,26.23-54.13,39.01l3.09,2.19c4.37,3.13,5.38,9.22,2.25,13.59-3.13,4.37-9.22,5.38-13.59,2.25-23.69-16.97-50.16-31.24-80.48-41.76l-2.31-.79c-31.45-10.64-67.06-17.32-108-18.89-5.36-.19-9.55-4.69-9.36-10.05.19-5.36,4.69-9.55,10.05-9.36,14.12.54,27.63,1.67,40.59,3.32,7.21-5.87,15-12.32,22.44-18.49,31.07-25.74,55.54-46.02,103.04-74.94,4.58-2.8,10.57-1.35,13.36,3.24,2.8,4.58,1.35,10.57-3.23,13.36-46.16,28.11-70.21,48.04-100.75,73.34l-9.19,7.6c15.67,3.04,30.48,6.9,44.51,11.52,18.15-13.73,36.47-27.52,55.38-41.55,19.15-14.2,37.75-27.73,55.37-40.09,5.73-4.02,3.54-2.52,5.55-3.91l5.5-3.78c4.77-3.28,5.65-3.93,6.12-4.28l.87-.63,4.81-3.15c14.5-9.53,26.63-16.9,36.63-21.71,11.36-5.47,20.69-7.95,28.37-6.96,5.32.67,9.08,5.53,8.41,10.85-.67,5.32-5.53,9.08-10.85,8.41-3.68-.47-9.5,1.37-17.48,5.21-9.34,4.5-20.76,11.44-34.42,20.42l-.37.25c-2.11,1.38-2.8,1.84-4.13,2.75l-.26.18c-.54.4-1.58,1.17-6.65,4.66l-5.42,3.78c-5.68,3.95-3.55,2.43-5.55,3.84-17,11.92-35.52,25.41-54.91,39.78-14.07,10.43-29.39,21.95-45.23,33.91,17.21,6.99,33.19,15.15,48.14,24.29Z"/>
    <path class="cls-2" d="m456.08,291.62c-.89-12.84-3.96-24.86-9.49-35.94-5.54-11.1-13.58-21.32-24.39-30.54-4.08-3.49-4.56-9.63-1.07-13.7,1.27-1.49,2.9-2.49,4.64-3,12.04-3.53,22.14-10.14,30.86-18.9,9.05-9.09,16.74-20.63,23.63-33.59,2.52-4.75,8.42-6.56,13.17-4.03,2.92,1.55,4.73,4.37,5.1,7.42,1.96,15.99,5.65,30.68,11.1,44.01,5.45,13.32,12.67,25.38,21.71,36.12,3.45,4.1,2.92,10.22-1.18,13.67-1.42,1.2-3.09,1.91-4.8,2.17v.04c-12.32,1.87-22.52,6.2-30.79,12.76-8.39,6.65-14.96,15.66-19.91,26.79-2.16,4.9-7.89,7.11-12.79,4.95-3.41-1.51-5.52-4.74-5.76-8.22h-.03Zm7.94-44.61h0c2.78,5.57,5.04,11.32,6.82,17.25,3.51-4.22,7.38-8.02,11.62-11.38,7.23-5.73,15.45-10.16,24.73-13.2-6.14-9.01-11.31-18.67-15.52-28.95-3.09-7.54-5.67-15.41-7.75-23.58-4.16,5.8-8.64,11.2-13.51,16.09-7.22,7.26-15.25,13.35-24.31,17.95,7.42,8.05,13.36,16.67,17.92,25.81h0Zm-96.52,74.17h0c.67-1.65,1.4-3.28,2.2-4.88,2.23-4.47,4.98-8.74,8.27-12.81-4.14-2.57-7.91-5.65-11.4-9.15-1.32-1.32-2.58-2.7-3.81-4.13-.82,2.51-1.73,4.98-2.71,7.39l-.22.51c-1.97,4.74-4.26,9.26-6.89,13.56,4.19,1.81,8.02,4.1,11.5,6.87,1.05.84,2.07,1.72,3.06,2.64h0Zm19.63,3.8h0c-3.11,6.22-4.84,12.98-5.34,20.21h-.03c-.24,3.48-2.35,6.71-5.76,8.22-4.9,2.16-10.62-.05-12.79-4.95-2.72-6.13-6.32-11.07-10.89-14.69-4.45-3.53-10-5.87-16.75-6.9v-.04c-1.71-.25-3.37-.97-4.8-2.17-4.1-3.45-4.63-9.57-1.18-13.67,5.1-6.07,9.19-12.85,12.29-20.3l.18-.48c3.15-7.69,5.28-16.22,6.43-25.55.37-3.05,2.18-5.87,5.1-7.42,4.75-2.52,10.65-.72,13.17,4.03,4,7.52,8.43,14.18,13.57,19.35,4.82,4.84,10.37,8.48,16.97,10.41,1.75.51,3.37,1.52,4.64,3.01,3.49,4.08,3.01,10.21-1.07,13.7-6.11,5.21-10.65,10.97-13.76,17.21Z"/>
  </g>
</svg>