<?xml version="1.0" encoding="UTF-8"?>
<svg id="Layer_1" data-name="Layer 1" xmlns="http://www.w3.org/2000/svg" viewBox="0 0 1000 1000">
  <defs>
    <style>
      .cls-1 {
        fill: #7b8388;
      }

      .cls-2 {
        fill: #e2e9ef;
      }
    </style>
  </defs>
  <path class="cls-1" d="m466.88,810.18c-60.98,0-107.42-12.67-141.97-38.74-31.9-24.06-54.5-55.57-70.63-80.34-17.42-26.75-32.58-56.81-46.35-91.89-10.97-27.94-19.56-57.01-27.87-85.13-8.67-29.36-17.64-59.7-29.24-88.38-11.94-27.22-27.07-53.2-44.87-77-1.5-1.89-3.13-3.9-4.81-5.92l-1-.52c-22.83-11.81-46.42-24.02-65.47-44.04-7.44-7.83-15.46-17.46-18.4-29.58-3.72-15.29-1.58-30.53,6.19-44.09,9.25-16.15,28.01-29.03,47.79-32.82,6.63-1.27,13.46-1.91,20.29-1.91,21.45,0,41.6,6.31,58.49,12.49,18.69,6.83,39.86,14.58,58.48,26.45,21.67,13.81,39.15,32.13,53.44,56.02,7.86,13.13,15.43,26.66,22.76,39.75,3.32,5.94,6.65,11.88,10,17.79l.5.88c10.32,18.18,20.96,36.93,27.91,57.51.52-.15,1.04-.31,1.55-.47,2.03-1.05,4.01-2.2,5.91-3.45,2.18-2.02,4.31-4.2,6.32-6.5,9.13-12.99,16.4-27.93,23.42-42.38,4.07-8.37,8.27-17.02,12.85-25.34,14.52-26.39,29.15-51.78,48.34-72.29,18.58-19.86,44.11-31.25,70.04-31.25,10.09,0,19.93,1.76,29.25,5.23,18.25,6.8,34.66,18.22,46.8,32.46,6.56-1.39,13.39-2.1,20.4-2.1,6.4,0,12.96.59,19.51,1.76,28.14,5,47.19,23.48,58.5,38.76,7.09-1.51,14.07-2.27,20.81-2.27,14.02,0,26.78,3.27,37.91,9.72,24.42,14.15,35.45,38.68,42.33,58.47,4.45,12.79,7.45,27.04,8.95,42.5,4.72-4.57,9.25-8.8,13.67-12.74,44.17-39.34,86.83-63.16,130.41-72.81,4.35-.96,8.43-1.43,12.46-1.43,6.58,0,12.8,1.25,19.01,3.82,6.31,2.12,11.85,5.71,16.48,10.68.19.2.36.41.53.63l6.32,8.18c.47.6.85,1.26,1.15,1.95,1.69,3.93,3.04,7.32,4.2,10.59,5.05,8.89,7.14,19.64,5.92,30.48.34,9.52-1.3,19.04-2.77,26.32-2.94,14.52-9.58,30.05-19.18,44.94-20.93,32.44-50.37,60.01-95.44,89.37-10.94,7.13-22.22,14.02-33.13,20.69-19.17,11.72-39,23.84-57.19,37.37-3.15,2.52-6.44,5.29-9.63,8.09-4.08,6.96-8.1,13.96-12.12,20.95l-4.45,7.74c-14.11,24.49-33.44,56.28-57.91,84.98-21.92,25.72-47.1,45.96-72.84,58.54-29.81,14.57-63.81,22.92-107,26.27-17.25,1.34-32.5,2-46.62,2h0Z"/>
  <path class="cls-1" d="m90.55,198.83c18.96,0,37.05,5.24,55.39,11.95,19.38,7.09,39.26,14.45,56.74,25.59,21.35,13.61,37.59,31.38,50.56,53.05,11.29,18.87,21.8,38.23,32.66,57.36,11.43,20.14,22.96,40.3,29.57,62.66.17.56.3,1.13.46,1.7.67-.03,1.34-.05,2.02-.09,3.11-.64,6.18-1.46,9.2-2.46,2.76-1.4,5.43-2.95,8.01-4.67,2.78-2.53,5.39-5.21,7.85-8.05,15.05-21.27,24.56-46.2,37.07-68.95,13.37-24.3,27.99-50.13,47.03-70.48,16.41-17.54,39.75-28.4,63.45-28.4,8.76,0,17.58,1.48,26.11,4.66,18.37,6.84,34.86,18.67,46.53,34.14,7.67-2.17,15.69-3.21,23.82-3.21,5.95,0,11.96.55,17.93,1.61,22.55,4.01,40.92,18.57,53.93,36.74.77,1.08,1.44,2.25,2.16,3.38,8.09-2.21,16.47-3.5,24.79-3.5,11.58,0,23.04,2.5,33.4,8.51,20.27,11.75,30.91,32.27,38.35,53.64,6.07,17.43,8.8,36.46,9.42,54.85.06,1.85,0,3.67,0,5.51,8.92-9.25,18.07-18.27,27.68-26.84,36.26-32.3,78.32-60.1,126.36-70.74,3.61-.8,7.09-1.22,10.52-1.22,5.37,0,10.58,1.03,15.86,3.26,5.02,1.63,9.37,4.43,13.03,8.37,2.11,2.73,4.22,5.46,6.33,8.2,1.68,3.89,3.07,7.4,4.26,10.82,4.65,7.78,6.26,17.27,5.1,26.34.39,8.29-.95,16.88-2.57,24.89-2.98,14.7-9.81,29.28-17.93,41.86-23.44,36.34-56.91,63.33-92.78,86.7-30.14,19.63-61.87,36.88-90.77,58.37-3.85,3.08-7.62,6.26-11.3,9.53-5.85,9.95-11.57,19.99-17.34,29.99-16.9,29.32-34.95,57.82-56.96,83.64-19.3,22.64-43.1,43.17-69.94,56.29-32.8,16.03-67.56,22.58-103.75,25.39-14.9,1.16-30.34,1.97-45.92,1.97-48.32,0-97.91-7.77-136.56-36.92-28.05-21.16-49.42-48.76-68.5-78.07-18.48-28.37-33.16-58.77-45.52-90.26-22.29-56.78-34.25-117.04-57.14-173.6-12.29-28.03-27.67-54.5-46-79.01-2.06-2.59-4.15-5.16-6.27-7.69-23.43-12.14-47-23.95-65.7-43.6-6.92-7.27-13.74-15.48-16.18-25.5-3.16-13-1.4-25.88,5.25-37.5,8.29-14.47,25.46-25.35,41.68-28.45,6.32-1.21,12.5-1.75,18.6-1.75m487.3,156.67c.27-.27.53-.55.8-.82-.22.05-.43.1-.64.15-.05.22-.1.45-.15.67M90.55,180.83v18-18c-7.41,0-14.8.7-21.99,2.07-22.25,4.26-43.41,18.85-53.91,37.19-8.93,15.6-11.39,33.12-7.12,50.69,3.44,14.17,12.36,24.96,20.63,33.65,19.9,20.92,43.93,33.45,67.21,45.5,1.19,1.45,2.37,2.92,3.55,4.39,17.27,23.12,31.96,48.35,43.66,75,11.4,28.21,20.27,58.26,28.86,87.32,8.36,28.29,17,57.55,28.11,85.86,13.99,35.65,29.43,66.23,47.19,93.51,16.53,25.38,39.73,57.71,72.75,82.61,36.17,27.29,84.39,40.55,147.4,40.55,14.36,0,29.83-.66,47.31-2.02,44.36-3.45,79.4-12.08,110.26-27.16,26.84-13.12,53.03-34.14,75.74-60.79,24.94-29.27,44.56-61.51,58.86-86.33l4.5-7.83c3.75-6.52,7.5-13.05,11.3-19.54,2.7-2.35,5.46-4.65,8.23-6.88,17.78-13.2,37.33-25.15,56.23-36.7,10.97-6.71,22.31-13.64,33.37-20.84,46.18-30.08,76.43-58.46,98.09-92.03,10.2-15.82,17.27-32.43,20.44-48.03,1.55-7.61,3.25-17.55,2.97-27.77,1.25-12.22-1.11-24.36-6.71-34.57-1.17-3.23-2.54-6.65-4.15-10.41-.6-1.39-1.37-2.69-2.29-3.88l-2.92-3.78-3.41-4.42c-.33-.43-.68-.84-1.05-1.24-5.58-6.01-12.28-10.38-19.91-12.99-7.14-2.91-14.6-4.39-22.16-4.39-4.7,0-9.41.54-14.41,1.64-45.12,9.99-89.1,34.48-134.45,74.87-.38.34-.76.68-1.14,1.02-1.72-9.54-4.05-18.57-6.99-27.02-6.82-19.6-19.05-47.48-46.32-63.29-12.52-7.26-26.8-10.94-42.43-10.94-5.57,0-11.28.47-17.06,1.42-16.55-20.39-37.85-33.7-60.67-37.76-7.06-1.26-14.16-1.89-21.08-1.89-5.8,0-11.51.44-17.06,1.33-12.7-13.57-29.03-24.43-47-31.13-10.32-3.84-21.22-5.79-32.39-5.79-28.4,0-56.32,12.43-76.6,34.1-19.92,21.29-34.86,47.2-49.66,74.1-4.69,8.52-8.95,17.29-13.07,25.76-7.11,14.62-13.83,28.44-22.4,40.72-.71.8-1.44,1.59-2.17,2.35-6.92-17.12-15.88-32.91-24.62-48.3l-.5-.88c-3.35-5.9-6.66-11.82-9.98-17.75-7.36-13.14-14.96-26.73-22.89-39.97-15.03-25.11-33.46-44.41-56.33-58.99-19.45-12.39-41.11-20.32-60.23-27.31-17.63-6.45-38.73-13.04-61.58-13.04h0Z"/>
  <path class="cls-2" d="m971.05,356.22c-1.19-3.42-2.58-6.93-4.26-10.82-2.11-2.73-4.22-5.46-6.33-8.2-3.67-3.95-8.01-6.74-13.03-8.37-8.64-3.65-17.1-4.09-26.37-2.04-48.04,10.64-90.1,38.44-126.36,70.74-9.62,8.57-18.77,17.59-27.68,26.84-.01-1.84.05-3.66,0-5.51-.62-18.38-3.35-37.41-9.42-54.85-7.44-21.37-18.08-41.89-38.35-53.64-17.82-10.33-38.84-10.29-58.2-5.01-.72-1.13-1.39-2.3-2.16-3.38-13.01-18.17-31.38-32.73-53.93-36.74-14.13-2.51-28.46-2.17-41.74,1.59-11.67-15.46-28.16-27.3-46.53-34.14-31.61-11.78-67.09-.29-89.56,23.74-19.04,20.36-33.66,46.18-47.03,70.48-12.51,22.74-22.02,47.68-37.07,68.95-2.46,2.84-5.07,5.53-7.85,8.05-2.58,1.72-5.25,3.27-8.01,4.67-3.02.99-6.08,1.81-9.2,2.46-.67.04-1.34.07-2.02.09-.16-.56-.3-1.13-.46-1.7-6.61-22.37-18.14-42.52-29.57-62.66-10.85-19.12-21.36-38.49-32.66-57.36-12.97-21.67-29.21-39.45-50.56-53.05-17.47-11.14-37.36-18.5-56.74-25.59-24.24-8.87-48.04-15.16-73.99-10.2-16.22,3.1-33.39,13.98-41.68,28.45-6.65,11.62-8.41,24.5-5.25,37.5,2.43,10.02,9.26,18.22,16.18,25.5,18.7,19.65,42.26,31.46,65.7,43.6,2.12,2.53,4.21,5.1,6.27,7.69,18.34,24.51,33.71,50.98,46,79.01,22.89,56.56,34.86,116.82,57.14,173.6,12.36,31.49,27.04,61.89,45.52,90.26,19.08,29.31,40.46,56.91,68.5,78.07,51.1,38.55,121.34,39.71,182.47,34.96,36.19-2.81,70.95-9.36,103.75-25.39,26.84-13.12,50.65-33.64,69.94-56.29,22.01-25.82,40.07-54.32,56.96-83.64,5.76-10,11.48-20.04,17.34-29.99,3.68-3.27,7.44-6.45,11.3-9.53,28.9-21.49,60.63-38.74,90.77-58.37,35.88-23.37,69.34-50.36,92.78-86.7,8.11-12.58,14.94-27.15,17.93-41.86,1.63-8.01,2.96-16.6,2.57-24.89,1.16-9.06-.45-18.55-5.1-26.34Zm-393.04-1.39c.22-.05.43-.1.64-.15-.27.27-.53.54-.8.82.05-.22.1-.45.15-.67Z"/>
  <path class="cls-1" d="m798.82,510.55c-9.36-18.98-25.89-32.56-42.88-44.69,2.05-6.67,3.74-13.45,4.96-20.32.96-5.38-1.46-10.91-7.07-12.46-4.9-1.35-11.49,1.66-12.46,7.07-1.17,6.57-2.83,13.01-4.77,19.34-1.54.87-2.86,2.07-3.66,3.58-1.55,2.93-1.63,5.95-.59,8.61-7.47,18.93-18.31,36.48-31.94,51.81-10.69,12.03-22.79,22.84-36.09,31.9-12.71,8.66-28.9,19.9-44.81,20.22-8.77.18-15.43-3.34-19.73-11.03-5.24-9.37-7.35-20.17-7.29-30.81,0-.52-.08-.98-.14-1.46,12.45-10.81,22.25-24.24,31.86-38.04,14.2-20.38,27.55-41.37,37.27-64.29,10.91-25.74,17.01-53.98,13.42-81.95-.7-5.42-4.16-10.12-10.12-10.12-4.93,0-10.83,4.66-10.12,10.12,5.56,43.3-13.25,83.45-36.31,118.86-10.96,16.83-22.13,35.3-37.21,48.78-12.73,11.38-32.57,21.83-50.18,20.2-9.55-.88-14.96-7.9-19.17-15.83-4.72-8.9-10.14-19.5-9.62-29.78.09-1.73-.21-3.21-.77-4.48,20.48-17.93,34.93-41.76,47.69-65.56,8.07-15.04,16.08-30.41,20.29-47.05,4.46-17.63,5.25-35.97,5.96-54.06.51-13.03-19.74-13.01-20.25,0-.54,13.56-.95,27.25-3.47,40.62-2.52,13.34-7.33,25.67-13.45,37.75-11.97,23.64-24.9,47.95-43.57,67.05-15.97,16.34-37.71,29.37-61.22,28.83-29.78-.69-23.71-38.94-18.78-58.11,3.95-15.34,9.54-30.23,14.8-45.15,5.63-15.95,11.25-31.9,16.88-47.85,4.35-12.31-15.21-17.61-19.53-5.38-5.63,15.95-11.26,31.9-16.88,47.85-5.38,15.26-11.11,30.48-15.07,46.19-1.68,6.65-3.11,14.07-3.86,21.66-4.16-5.22-8.66-10.16-13.46-14.78-9.39-9.04-23.73,5.26-14.32,14.32,11.69,11.26,21.06,24.34,27.9,39.08,7.38,15.9,11.42,33.69,16.1,50.53,9.98,35.96,17.75,72.77,13.71,110.26-.59,5.44,5.07,10.12,10.12,10.12,5.96,0,9.54-4.66,10.12-10.12,4.3-39.83-4.32-79.57-15.01-117.74-2.12-7.57-4.19-15.21-6.45-22.78,12.27,3.89,26.51,2.24,38.61-1.22,8.56-2.44,16.65-6.1,24.25-10.62,1.48,8.55,5.19,16.68,8.8,24.56,4.41,9.64,10.03,18.77,18.76,25.05,18.22,13.1,44.22,5.84,62.82-3.7,2.14,18.02,9.61,37.71,25.84,45.76,20.14,9.98,41.74,1.51,59.93-8.62,32.93-18.34,61.42-45.61,80.38-78.26,3.55-6.11,6.73-12.44,9.57-18.92.62.45,1.25.87,1.87,1.33.98.73,1.98,1.46,2.94,2.22.25.2.49.39.58.46.51.4,1.01.81,1.52,1.22,2.21,1.79,4.38,3.62,6.48,5.53,4.07,3.68,7.93,7.61,11.4,11.86.09.11.43.54.67.85.22.29.47.62.54.72.9,1.23,1.76,2.49,2.58,3.76,1.52,2.36,2.88,4.81,4.13,7.33,2.35,4.76,9.48,6.45,13.85,3.63,4.88-3.14,6.14-8.76,3.63-13.85Z"/>
  <path class="cls-1" d="m799.88,647.79c-1.62,44.42-22.57,86.6-56.98,114.71-4.24,3.46-3.59,10.73,0,14.32,4.19,4.19,10.07,3.47,14.32,0,38.46-31.42,61.11-79.62,62.91-129.03.47-13.03-19.78-13.01-20.25,0h0Z"/>
  <path class="cls-1" d="m900.01,595.39c-10.66,12.5-26.16,20.58-41.2,27.46-8.26,3.78-16.81,6.95-25.5,9.6-7.49,2.28-16.96,4.55-23.3,5.22-5.44.57-10.12,4.24-10.12,10.12,0,5.03,4.65,10.7,10.12,10.12,20.09-2.12,39.36-8.74,57.71-16.98,16.7-7.51,34.56-17.08,46.61-31.22,3.54-4.16,4.08-10.24,0-14.32-3.63-3.63-10.76-4.18-14.32,0h0Z"/>
  <path class="cls-1" d="m67.4,391.13c-3.3,18.33-3.23,37.17,2.33,55.08,5.27,16.96,14.82,32.07,27.07,44.86,9.03,9.43,23.34-4.9,14.32-14.32-20.84-21.75-29.53-50.55-24.19-80.24.97-5.38-1.46-10.91-7.07-12.45-4.9-1.35-11.48,1.66-12.45,7.07h0Z"/>
</svg>