<?xml version="1.0" encoding="UTF-8"?>
<svg id="Layer_1" data-name="Layer 1" xmlns="http://www.w3.org/2000/svg" viewBox="0 0 1000 1000">
  <defs>
    <style>
      .cls-1, .cls-2 {
        fill: #7b8388;
      }

      .cls-3 {
        fill: #e2e9ef;
      }

      .cls-3, .cls-2 {
        fill-rule: evenodd;
      }
    </style>
  </defs>
  <g>
    <path class="cls-2" d="m485.49,918.88c-50.78,0-99.04-14.49-143.44-43.07-57.07-36.73-94.66-109.58-111.98-149.73-12.79-29.64-17.65-74.71.32-108.57,10.89-20.53,24.57-25.4,32.75-28.31.93-.33,2.07-.74,2.92-1.09-.03-.91-.13-2.15-.21-3.15-.43-5.53-1.09-13.88,3.91-22.42,7.26-12.4,17.91-23.73,29.25-31.07,8.44-5.47,13.9-6.9,19.19-8.29,1.73-.46,3.41-.9,5.26-1.49-3.09-7.15-3.19-7.26-4.77-8.86-1.59-1.62-3.99-4.07-8.27-9.35-2.58-3.18-5.16-6.01-7.65-8.75-1.02-1.12-2.02-2.22-3.01-3.32-5.01-5.61-9.51-10.68-13.71-15.41-18.26-20.58-30.33-34.18-53.25-57.08l-1.43-1.44c-26.89-26.88-54.69-54.67-77.41-85.59-35.93-48.92-6.72-78.12,23.48-101.65,14.4-11.21,29.32-16.9,44.37-16.9,27.11,0,50.53,18.09,69.86,35.79,37.67,34.48,81.34,78.05,122.97,122.69l39.31,44.08c1.95,2.03,3.79,3.96,5.51,5.81-1.7-14.4-3.57-29.43-5.52-45.04-9.3-74.51-19.84-158.96-16.48-223.15.65-12.5,5.55-35.23,16.4-46.63,13.98-14.69,45.45-25.77,73.21-25.77,11.65,0,21.75,1.94,30.01,5.77,30.99,14.35,36.22,56.88,39.68,85.02.51,4.16.98,8.03,1.5,11.45,5.22,38.61,9.23,77.03,13.1,114.19,3.2,30.67,6.52,62.39,10.44,93.48,1.69,13.41,4.66,24.71,9.34,35.57,1.78,4.13,3.34,5.52,9.02,5.61h0c2.95,0,6.97-1.15,12.04-2.6,4.23-1.21,9.02-2.58,14.8-3.79,9.89-2.08,20.02-3.13,30.11-3.13,38.28,0,75.57,14.95,105,42.1,40.34,37.2,62.34,94.25,60.35,156.51-1.87,58.67-24.5,111.56-65.45,152.94-61.91,62.56-170.98,118.82-236.52,135.07-25.76,6.35-50.98,9.58-74.98,9.58Z"/>
    <path class="cls-1" d="m527.05,90.12c9.69,0,18.82,1.5,26.23,4.93,30.63,14.18,32.2,64.07,36.07,89.65,9.49,70.26,14.86,138.83,23.51,207.45,1.58,12.53,4.42,25.06,10.01,38.01,3.35,7.77,8.39,10.9,17.13,11.04.1,0,.2,0,.31,0,6.94,0,15.38-3.82,28.53-6.58,9.44-1.98,18.89-2.94,28.26-2.94,36.47,0,71.6,14.53,98.9,39.71,40.89,37.71,59.21,94.34,57.46,149.61-1.8,56.51-23.34,106.97-62.85,146.9-62.21,62.87-169.86,117.19-232.29,132.66-24.82,6.12-49.08,9.31-72.81,9.31-48.27,0-94.36-13.18-138.58-41.64-46.96-30.22-84.43-89.74-108.59-145.73-12.46-28.88-15.96-70.7,0-100.79,14.55-27.42,33.53-21.46,36.24-29.7,1.86-5.66-2.75-15.2,2.96-24.95,5.71-9.75,15.13-20.78,26.37-28.06,11.63-7.53,15.72-5.88,27.39-10.61.67-3.63,2.57-5.32,1.15-8.6-6.83-15.82-3.4-7.65-15.04-22-3.81-4.69-7.48-8.52-10.93-12.39-26.55-29.72-38.84-44.41-67.32-72.87-26.6-26.59-55.23-55.06-77.96-85.99-29.01-39.48-11.92-62.98,21.76-89.21,13.63-10.62,26.52-15,38.84-15,22.85,0,43.74,15.08,63.79,33.43,40.6,37.16,84.64,81.63,122.47,122.19l39.18,43.93c6.05,6.3,14.45,15.29,19.51,22.15l4.1-1.77c-9.45-87.31-28.76-205.05-24.41-288.28.64-12.22,5.46-31.99,13.94-40.9,12.06-12.68,41.28-22.98,66.69-22.98m0-18c-30.45,0-63.98,12.02-79.73,28.57-13.51,14.2-18.25,40.46-18.87,52.37-3.39,64.98,7.2,149.85,16.54,224.73.71,5.72,1.42,11.37,2.11,16.93l-25.62-28.73c-.09-.1-.18-.2-.27-.3-41.8-44.81-85.65-88.56-123.48-123.19-20.61-18.86-45.75-38.15-75.94-38.15-17.09,0-33.88,6.32-49.9,18.8-22.5,17.53-69.33,54-25.21,114.07,23.14,31.5,51.2,59.55,78.35,86.68l1.39,1.39c22.74,22.72,34.74,36.24,52.9,56.71,4.2,4.74,8.71,9.81,13.72,15.42,1.01,1.13,2.05,2.27,3.1,3.42,2.51,2.75,4.88,5.35,7.28,8.32,2.61,3.22,4.61,5.49,6.13,7.15-4.24,1.41-9.16,3.55-15.44,7.62-12.47,8.08-24.18,20.5-32.12,34.08-5.29,9.05-5.67,17.73-5.36,24-9.19,3.52-23.17,10.52-34.19,31.3-19.37,36.5-14.28,84.74-.64,116.35,17.73,41.09,56.29,115.71,115.37,153.73,45.88,29.53,95.78,44.5,148.32,44.5,24.73,0,50.67-3.31,77.12-9.83,66.75-16.54,177.77-73.81,240.78-137.48,42.58-43.03,66.11-98,68.05-158.99,2.06-64.88-20.99-124.44-63.24-163.42-31.1-28.68-70.56-44.48-111.1-44.48-10.71,0-21.46,1.12-31.97,3.33-6.08,1.28-11.25,2.76-15.4,3.94-3.7,1.06-7.89,2.26-9.43,2.26-.33,0-.61-.02-.85-.04-.02-.04-.04-.09-.06-.14-4.34-10.05-7.09-20.58-8.68-33.14-3.9-30.95-7.2-62.58-10.4-93.17-3.89-37.26-7.91-75.79-13.13-114.44-.01-.09-.03-.19-.04-.28-.49-3.25-.97-7.11-1.47-11.2-3.71-30.12-9.3-75.64-44.83-92.09-9.45-4.38-20.82-6.59-33.79-6.59h0Z"/>
  </g>
  <g id="Victory">
    <path class="cls-3" d="m470.84,442.27h0l-4.1,1.77c-5.07-6.86-13.46-15.85-19.51-22.14l-39.18-43.93c-37.83-40.56-81.87-85.03-122.47-122.19-30.85-28.23-63.7-48.74-102.62-18.43-33.68,26.23-50.76,49.73-21.76,89.21,22.72,30.93,51.36,59.4,77.96,85.99,28.48,28.46,40.77,43.15,67.32,72.87,3.45,3.86,7.12,7.69,10.93,12.39,11.64,14.35,8.21,6.18,15.04,22,1.42,3.29-.48,4.97-1.15,8.6-11.66,4.73-15.76,3.08-27.39,10.61-11.24,7.28-20.67,18.31-26.37,28.06-5.7,9.75-1.1,19.29-2.96,24.95-2.7,8.24-21.69,2.28-36.24,29.7-15.97,30.09-12.47,71.9,0,100.79,24.15,55.98,61.63,115.5,108.59,145.73,65.96,42.45,136.09,50.9,211.39,32.33,62.44-15.48,170.08-69.8,232.29-132.66,39.51-39.93,61.06-90.39,62.85-146.9,1.76-55.27-16.57-111.9-57.46-149.61-34.31-31.65-80.99-46.47-127.16-36.77-13.34,2.81-21.84,6.7-28.84,6.58-8.74-.14-13.78-3.27-17.13-11.04-5.59-12.95-8.43-25.48-10.01-38.01-8.65-68.62-14.02-137.19-23.51-207.45-3.87-25.58-5.43-75.47-36.07-89.65-26.85-12.43-76.25.53-92.91,18.05-8.48,8.91-13.3,28.68-13.94,40.9-4.35,83.22,14.96,200.97,24.41,288.28Z"/>
    <path class="cls-2" d="m751.92,350.59c-2.9,5.49-9.71,7.6-15.21,4.69-5.49-2.9-7.59-9.71-4.69-15.21,4.24-8.03,8.95-15.1,13.94-21.09,5.3-6.36,10.97-11.54,16.78-15.41,3.44-2.29,6.94-4.13,10.45-5.5,3.68-1.43,7.4-2.34,11.11-2.71,4.88-.49,9.54-.06,13.79,1.15,6.38,1.81,11.92,5.34,16.06,10.11,4.2,4.83,6.92,10.89,7.6,17.69.42,4.21.06,8.65-1.22,13.17-1.16,4.1-3.11,7.88-5.81,11.2-2.6,3.2-5.84,5.92-9.68,8.05-1.79.99-3.55,1.73-5.27,2.25-6.05,1.82-12.05,1.23-17.29-1.13h-.03s-.01.02-.01.02c-5.01-2.26-9.23-6.19-11.99-11.17l-.18-.33c-.87-1.62-1.57-3.29-2.09-4.99-1.8-5.96,1.57-12.24,7.52-14.05,5.96-1.8,12.24,1.57,14.05,7.52.11.35.22.65.34.88l.04.07c.39.71.96,1.26,1.6,1.55v.03c.4.18.93.21,1.52.03.34-.1.64-.22.89-.36,1.31-.72,2.35-1.58,3.13-2.53.73-.9,1.27-1.96,1.6-3.15.5-1.76.65-3.37.51-4.8-.2-2.02-1-3.81-2.22-5.22-1.27-1.47-3.07-2.58-5.2-3.18-1.65-.47-3.49-.64-5.42-.44-1.64.16-3.38.6-5.19,1.31-2,.78-4.06,1.87-6.14,3.26-4,2.67-8.06,6.42-12,11.14-3.99,4.79-7.81,10.54-11.31,17.17h0Zm-60.2,4.1h0c-4.09-21.68-3.75-42,1.82-60.72,5.53-18.57,16.3-35.78,33.14-51.4,4.57-4.22,4.84-11.35.62-15.92-4.22-4.57-11.35-4.84-15.92-.62-19.94,18.5-32.76,39.1-39.43,61.51-6.62,22.27-7.09,46.12-2.34,71.31,1.15,6.1,7.03,10.12,13.13,8.97,6.11-1.15,10.12-7.03,8.97-13.14h0Zm63.95-148.54h0c-1.45-6.05,2.29-12.14,8.35-13.58,6.06-1.45,12.14,2.29,13.58,8.35l5.85,24.68c1.45,6.06-2.29,12.14-8.35,13.58-6.05,1.45-12.14-2.29-13.59-8.35l-5.85-24.68h0Zm28.93-22.21h0c-6.1,1.23-12.03-2.73-13.26-8.82-1.23-6.1,2.72-12.04,8.82-13.26l23.29-4.61c6.1-1.23,12.04,2.72,13.26,8.82,1.23,6.1-2.72,12.04-8.82,13.26l-23.29,4.61h0Zm-18.14-35.08h0c1.39,6.05-2.39,12.09-8.44,13.48-6.05,1.39-12.09-2.39-13.48-8.44l-5.22-22.87c-1.39-6.05,2.39-12.09,8.44-13.48,6.05-1.39,12.09,2.39,13.48,8.44l5.23,22.87h0Zm-27.76,22.14h0c6.11-1.13,11.98,2.92,13.11,9.03,1.13,6.12-2.91,11.98-9.03,13.11l-25.2,4.63c-6.12,1.13-11.99-2.91-13.11-9.03-1.13-6.11,2.91-11.98,9.03-13.11l25.2-4.63Z"/>
  </g>
  <path class="cls-1" d="m635.7,467.84c-32.26,15.26-62.68,35.21-92.59,54.55-16.35,10.58-32.57,21.39-48.42,32.71-11.19,7.99-22.99,16.01-32.77,25.75-11.01,10.97-16.11,28.04-17.3,43.13-1.89,23.93,9.98,49.58,30.59,62.36,18.63,11.55,43.43,13.52,64.45,8.73,10.23-2.33,19.96-6.8,27.9-13.7,7.05-6.12,13.71-12.65,20.87-18.66,15.59-13.09,33.06-24.49,51.83-33.38,25.25-11.95,52.48-19.52,79.59-25.91,12.68-2.99,7.31-22.52-5.38-19.53-42.53,10.03-85.02,23.7-120.91,49.36-7.35,5.26-14.46,10.88-21.35,16.74-6.75,5.74-12.92,12.42-19.91,17.85-13.36,10.38-35,11.3-51.19,7.34-8.19-2-16.1-5.38-21.89-11.32-7.54-7.72-12.88-17.82-14.23-28.59-1.14-9.07.33-17.9,3.38-26.45.96-2.69,1.89-4.84,3.8-8.17.65-1.13,1.39-2.2,2.07-3.31,1.39-2.29-1.16.91.74-.89,9.22-8.71,16.35-14.06,26.18-21.17,14.74-10.66,29.83-20.82,45.05-30.77,32.14-21.02,64.92-42.72,99.7-59.17,4.94-2.34,6.22-9.43,3.63-13.85-2.96-5.06-8.89-5.98-13.85-3.63h0Z"/>
  <path class="cls-1" d="m639.85,675.37c15.38-4.7,27.97-16.76,38.08-28.81,10.2-12.15,19.25-25.51,25.14-40.31,1.96-4.93-2.14-11.33-7.07-12.45-5.84-1.33-10.35,1.79-12.45,7.07-.9,2.27.27-.49-.03.09-.34.67-.62,1.38-.94,2.06-.59,1.25-1.22,2.49-1.86,3.72-1.55,2.95-3.23,5.84-4.99,8.67-1.94,3.11-3.98,6.14-6.12,9.12-.51.71-1.03,1.41-1.55,2.12-.19.25-2.02,2.64-1.34,1.78.67-.86-1.21,1.51-1.41,1.76-.56.69-1.13,1.38-1.7,2.06-4.82,5.74-10.04,11.19-15.83,15.95-.41.33-2.38,1.84-.5.43-.63.47-1.27.95-1.92,1.4-1.45,1.03-2.94,2-4.48,2.9-1.25.73-2.54,1.35-3.82,2.02-1.97,1.02,1.79-.6-.11.06-.83.29-1.66.59-2.5.85-5.06,1.55-8.79,7.15-7.07,12.45,1.65,5.1,7.03,8.73,12.45,7.07h0Z"/>
  <path class="cls-1" d="m355.78,542.15c10.91,1.25,21.63,4.63,32.14,7.71,9.92,2.91,19.77,6.09,29.45,9.73,18.7,7.03,37.07,16.13,52.88,28.47,4.31,3.36,10.12,4.2,14.32,0,3.5-3.5,4.33-10.94,0-14.32-18.24-14.24-38.43-24.72-60-32.99-21.92-8.4-45.4-16.17-68.78-18.85-5.44-.62-10.12,5.1-10.12,10.12,0,5.99,4.67,9.5,10.12,10.12h0Z"/>
  <path class="cls-1" d="m471.02,764c17.09,8.07,37.29,10.74,55.61,5.34,19.92-5.88,34.84-21.62,39.08-42.06,3.31-15.92,1.29-32.33-2.76-47.92-3.27-12.6-22.81-7.26-19.53,5.38.9,3.45,1.7,6.92,2.34,10.43.27,1.45.51,2.91.72,4.37-.22-1.59.07.62.11,1,.09.85.18,1.71.25,2.56.24,2.89.36,5.8.32,8.71-.02,1.21-.06,2.41-.14,3.62-.05.73-.1,1.46-.17,2.18-.03.31-.38,3.04-.17,1.61s-.07.37-.13.7c-.13.66-.24,1.33-.38,1.99-.21,1.03-.45,2.04-.72,3.06-.29,1.1-.62,2.19-.98,3.26-.16.47-.34.93-.49,1.39-.72,2.18.27-.47-.06.26-.82,1.8-1.7,3.55-2.72,5.23-.52.86-1.1,1.68-1.66,2.52-.37.56-1.45,1.77.2-.2-.35.42-.68.84-1.04,1.25-1.19,1.38-2.46,2.68-3.81,3.89-.29.26-2.72,2.21-1.41,1.22,1.39-1.05-.3.2-.5.33-.52.35-1.04.71-1.57,1.05-1.5.96-3.05,1.83-4.65,2.61-.62.3-3.69,1.46-.74.38-.99.36-1.96.75-2.96,1.09-1.71.57-3.44,1.05-5.19,1.45-.93.21-1.87.4-2.81.57-.42.07-.85.13-1.26.21-2.22.45,2.41-.18.15-.02-3.89.28-7.7.53-11.6.3-1.08-.06-2.15-.17-3.22-.26-.43-.04-.85-.1-1.28-.14,2.97.28.85.13.14,0-2.11-.37-4.2-.76-6.27-1.27-2.14-.53-4.26-1.17-6.34-1.9-.97-.34-1.93-.76-2.9-1.1-1.24-.42,1.84.96.72.31-.6-.35-1.31-.59-1.94-.89-4.94-2.33-10.92-1.38-13.85,3.63-2.58,4.4-1.33,11.51,3.63,13.85h0Z"/>
  <path class="cls-1" d="m321.38,617.96c59.99,18.49,109.27,59.73,136.35,116.54,6.2,13.01,11.38,27.47,10.75,42.08-.54,12.49-7.07,23.18-16.86,30.77-8.67,6.71-17.27,10-27.23,9.93-9.9-.07-20.38-4.1-28.8-11.26-11.91-10.14-18.12-23.5-25.52-36.9-8.03-14.52-13.99-29.55-13.35-46.44.49-13.03-19.76-13.01-20.25,0-.69,18.44,5.08,35.92,13.61,52.05,7.19,13.6,13.9,27.5,24.36,38.97,19.66,21.57,49.89,30.43,76.88,17.6,14.55-6.92,27.04-19.43,33.15-34.36,6.14-15,5-31.81.69-47.14-9.14-32.55-29.66-63.33-52.85-87.6-28.9-30.25-65.71-51.49-105.54-63.77-12.48-3.85-17.82,15.69-5.38,19.53h0Z"/>
  <path class="cls-1" d="m591.8,793.04c20.77-1.81,40.94-8.17,58.65-19.27,15.9-9.97,38.97-27.4,36.33-48.78-.67-5.43-4.17-10.12-10.12-10.12-4.95,0-10.8,4.66-10.12,10.12.89,7.19-3.76,12.64-8.93,17.67-5.97,5.81-12.55,10.8-19.71,15.06-13.99,8.33-29.83,13.66-46.08,15.07-5.45.47-10.12,4.31-10.12,10.12,0,5.11,4.65,10.6,10.12,10.12h0Z"/>
</svg>