<?xml version="1.0" encoding="UTF-8"?>
<svg id="Layer_1" data-name="Layer 1" xmlns="http://www.w3.org/2000/svg" viewBox="0 0 1773.25 1000">
  <defs>
    <style>
      .cls-1 {
        fill: #f4f3ef;
      }
    </style>
  </defs>
  <path class="cls-1" d="m400.53,135.14v449.68h971.41V135.14H400.53Zm901.75,304.84h-177.43v75.18h-477.23v-75.18h-177.43v-235.18h832.09v235.18Z"/>
  <path class="cls-1" d="m282.07,745.17h79.79v19.95c0,10.91-3.89,20.28-11.67,28.13-7.78,7.85-17.19,11.77-28.23,11.77,11.04,0,20.45,3.89,28.23,11.67,7.78,7.78,11.67,17.19,11.67,28.23v19.95h-79.79v-19.95c0-5.45-1.96-10.14-5.88-14.06-3.92-3.92-8.61-5.88-14.06-5.88h-59.84v39.9h-79.79v-159.58h79.79v79.79h59.84c5.45,0,10.14-1.96,14.06-5.88,3.92-3.92,5.88-8.61,5.88-14.06v-19.95Z"/>
  <path class="cls-1" d="m457.51,819.08c-3.92-3.92-5.88-8.61-5.88-14.06h159.58c0-16.62-5.82-30.75-17.45-42.39-11.64-11.64-25.77-17.45-42.39-17.45h-119.69c-16.49,0-30.59,5.82-42.29,17.45-11.7,11.64-17.55,25.77-17.55,42.39s5.85,30.59,17.55,42.29c11.7,11.7,25.8,17.55,42.29,17.55h179.53v-39.9h-139.64c-5.45,0-10.14-1.96-14.06-5.88Zm-5.88-24.04c0-2.66,1-4.99,2.99-6.98,1.99-1.99,4.32-2.99,6.98-2.99h59.84c2.66,0,4.99,1,6.98,2.99,1.99,2,2.99,4.32,2.99,6.98v4.99h-79.79v-4.99Z"/>
  <path class="cls-1" d="m711.85,819.08c-3.92-3.92-5.88-8.61-5.88-14.06h159.58c0-16.62-5.82-30.75-17.45-42.39-11.64-11.64-25.77-17.45-42.39-17.45h-119.69c-16.49,0-30.59,5.82-42.29,17.45-11.7,11.64-17.55,25.77-17.55,42.39s5.85,30.59,17.55,42.29c11.7,11.7,25.8,17.55,42.29,17.55h179.53v-39.9h-139.64c-5.45,0-10.14-1.96-14.06-5.88Zm-5.88-24.04c0-2.66,1-4.99,2.99-6.98,1.99-1.99,4.32-2.99,6.98-2.99h59.84c2.66,0,4.99,1,6.98,2.99,1.99,2,2.99,4.32,2.99,6.98v4.99h-79.79v-4.99Z"/>
  <path class="cls-1" d="m1107.42,762.63c11.64,11.64,17.46,25.77,17.46,42.39s-5.82,30.59-17.46,42.29c-11.64,11.7-25.77,17.55-42.39,17.55h-89.77v-39.9h49.87c5.45,0,10.14-1.96,14.06-5.88,3.92-3.92,5.88-8.61,5.88-14.06s-1.96-10.14-5.88-14.06c-3.92-3.92-8.61-5.88-14.06-5.88h-59.84v79.79h-79.79v-159.58h79.79v39.9h99.74c16.62,0,30.75,5.82,42.39,17.45Z"/>
  <path class="cls-1" d="m1242.73,819.08c-3.92-3.92-5.88-8.61-5.88-14.06h159.58c0-16.62-5.82-30.75-17.45-42.39-11.64-11.64-25.77-17.45-42.39-17.45h-119.69c-16.49,0-30.59,5.82-42.29,17.45-11.7,11.64-17.55,25.77-17.55,42.39s5.85,30.59,17.55,42.29c11.7,11.7,25.8,17.55,42.29,17.55h179.53v-39.9h-139.64c-5.45,0-10.14-1.96-14.06-5.88Zm-5.88-24.04c0-2.66,1-4.99,2.99-6.98,1.99-1.99,4.32-2.99,6.98-2.99h59.84c2.66,0,4.99,1,6.98,2.99,1.99,2,2.99,4.32,2.99,6.98v4.99h-79.79v-4.99Z"/>
  <path class="cls-1" d="m1497.06,819.08c-3.92-3.92-5.88-8.61-5.88-14.06h159.58c0-16.62-5.82-30.75-17.45-42.39-11.64-11.64-25.77-17.45-42.39-17.45h-119.69c-16.49,0-30.59,5.82-42.29,17.45-11.7,11.64-17.55,25.77-17.55,42.39s5.85,30.59,17.55,42.29c11.7,11.7,25.8,17.55,42.29,17.55h179.53v-39.9h-139.64c-5.45,0-10.14-1.96-14.06-5.88Zm-5.88-24.04c0-2.66,1-4.99,2.99-6.98,1.99-1.99,4.32-2.99,6.98-2.99h59.84c2.66,0,4.99,1,6.98,2.99,1.99,2,2.99,4.32,2.99,6.98v4.99h-79.79v-4.99Z"/>
</svg>