<?xml version="1.0" encoding="UTF-8"?>
<svg id="Layer_1" data-name="Layer 1" xmlns="http://www.w3.org/2000/svg" viewBox="0 0 1000 1000">
  <defs>
    <style>
      .cls-1, .cls-2 {
        fill: #7b8388;
      }

      .cls-3 {
        fill: #e2e9ef;
      }

      .cls-3, .cls-2 {
        fill-rule: evenodd;
      }
    </style>
  </defs>
  <g>
    <path class="cls-2" d="m517.86,843.39c-94.86,12.9-208.34-19.83-242.34-150.4-.09-.36-.17-.73-.21-1.1-3.55-27.25-3.32-37.81-2.8-60.95l.04-2.03c-15.39-11.83-31.32-25.75-45.32-45.77-16.44-25.56-46.68-72.61-38.75-118.71,6.19-35.99,29.85-58.56,66.6-63.56,1.35-.18,2.73-.34,4.11-.48-.88-.91-1.76-1.87-2.63-2.9-4.35-5.12-7.74-10.93-10.34-17.75-8.37-21.88-6.92-48.83,3.6-67.05,2.08-3.6,4.8-7.38,8.56-11.89,22.74-27.28,57.86-38.43,88.85-48.26l2.04-.65c.26-.08.52-.15.78-.21,6.85-1.52,13.66-2.74,20.24-3.64,28.32-3.85,54.84-2.17,83.44,5.28,41.94,10.94,86.8,40.6,112.91,73.96.18-23.7-.57-49.69-2.24-77.63-.84-14.01-.7-23.3.46-31.06,2.95-19.71,13.79-36.8,31.36-49.43,4.44-3.19,9.16-5.94,14.03-8.17,7.05-3.22,14.45-5.38,22-6.41,31.04-4.22,60.09,10.52,75.81,38.47,2.91,5.17,5.27,12.32,7.18,21.71,1.09-.19,2.18-.37,3.27-.52,36.76-5,70.52,16.43,82.09,52.11,9.94,30.64-10.14,102.55-27.17,153.62,4.08-4.88,7.56-8.48,10.95-11.41,8.95-7.7,16.99-10.33,29.16-14.29l3.34-1.09c.52-.17,1.06-.29,1.6-.37.62-.08,1.24-.1,1.87-.06l4.75.33c2.94.2,5.7.39,8.32.62,19.77,1.74,37.62,11.44,48.96,26.61,11.27,15.08,15.35,33.94,11.48,53.11-7.74,38.37-110.1,142.82-142.57,169.11-10.46,35.13-33.01,70.2-67.07,104.28-37.06,39.28-71.08,66.37-100.96,80.33-.26.12-.52.23-.79.32-21.3,7.6-43.03,12.94-64.59,15.87Zm-194.38-417.29c11.05,13.27,14.47,26.22,17.6,38.07,3.7,13.99,6.9,26.08,22.52,38.59,13.1,10.5,26.1,14.2,42.18,12.02,1.85-.25,3.76-.59,5.72-1,20.91-4.45,33.43-20.5,37.53-29.27,9.98-21.35,6.31-38.84,1.47-49.76-6.7-15.11-19.75-26.94-34.93-31.63-7.66-2.37-15.6-3.02-23.59-1.93-9.12,1.24-18.33,4.71-27.39,10.31-14.96,9.25-23.4,12.95-32.23,14.15-2.97.4-5.83.5-8.88.46Z"/>
    <path class="cls-1" d="m633.45,163.52c26.06-3.55,52.39,8.43,66.75,33.97,3.41,6.06,5.96,15.92,7.8,28.31,3.89-1.22,7.8-2.08,11.7-2.61,31.44-4.28,61.75,13.37,72.32,45.97,11.83,36.46-25.87,148.34-45.52,199.24,9.68-11.69,18.81-23.3,27.13-34.21,6.8-8.92,11.87-14.69,16.6-18.77,8.27-7.12,15.56-9.1,29.43-13.65,4.72.34,8.99.59,12.93.94,35.44,3.12,59.49,33.92,52.41,68.98-7.03,34.83-108.76,139.48-140.25,164.56-.44.35-.89.7-1.35,1.06-9.68,34.67-31.49,69.07-65.59,103.19-36.83,39.03-69.59,65.07-98.4,78.54-20.73,7.39-41.82,12.58-62.78,15.43-103.16,14.03-202.44-28.63-232.41-143.75-3.78-29.02-3.16-38.65-2.59-66.2-16.49-12.43-32.85-26.25-47.04-46.54-18.51-28.8-44.25-71.32-37.25-112.03,5.49-31.9,25.91-51.68,58.95-56.17,7.78-1.06,16.25-1.27,25.4-.59-5.26-6.48-12.12-10.3-18.27-17.53-3.23-3.8-6.28-8.55-8.79-15.13-6.82-17.83-6.71-42.55,2.98-59.34,1.82-3.15,4.26-6.53,7.68-10.63,21.53-25.83,56.1-36.37,86.7-46.09,6.66-1.47,13.14-2.64,19.51-3.5,27.9-3.8,53.43-1.84,79.95,5.07,41.98,10.95,89.91,42.86,114.15,79.15,3.44,5.15,6.52,10.4,9.29,15.68,1.65-36.9.45-74.9-1.51-107.74-.78-13.05-.7-21.99.38-29.2,2.76-18.47,12.96-32.85,27.71-43.45,4.03-2.9,8.23-5.33,12.52-7.29,6.34-2.9,12.89-4.78,19.47-5.67m-302.31,253.2c-7.87,1.07-15.68-.44-31.77-.41,46.05,32.65,20.62,63.03,58.6,93.47,12.95,10.38,27.98,16.77,49.01,13.91,2.07-.28,4.2-.65,6.38-1.12,22.49-4.79,37.91-21.63,43.82-34.27,20.32-43.49-5.89-83.58-38.96-93.8-9.28-2.87-18.5-3.47-27.46-2.25-10.81,1.47-21.24,5.59-30.91,11.57-14.07,8.69-21.42,11.9-28.71,12.89m299.88-271.03c-8.41,1.14-16.66,3.55-24.52,7.14-5.4,2.47-10.63,5.51-15.54,9.05-19.59,14.07-31.69,33.23-35.01,55.4-1.26,8.41-1.42,18.26-.54,32.93,1.12,18.77,1.82,36.64,2.1,53.52-27.55-27.12-65.58-49.72-101.52-59.1-29.77-7.76-57.39-9.51-86.92-5.49-6.82.93-13.88,2.19-20.98,3.77-.52.12-1.04.26-1.56.42l-2.04.65c-32.16,10.21-68.62,21.77-93.04,51.07-4.09,4.91-7.09,9.08-9.43,13.14-11.81,20.46-13.5,50.51-4.21,74.78,1.51,3.94,3.25,7.6,5.25,11.01-34.39,8.34-57.27,32.97-63.46,68.92-8.53,49.55,22.94,98.51,39.85,124.81.13.2.26.39.39.59,13.58,19.42,28.76,33.25,43.6,44.93-.47,21.26-.57,32.92,2.93,59.81.1.74.24,1.48.43,2.21,15.31,58.82,48.98,104.28,97.36,131.47,43.73,24.58,97.29,33.42,154.9,25.59,22.18-3.02,44.52-8.5,66.4-16.31.53-.19,1.06-.41,1.57-.65,31.29-14.63,65.21-41.55,103.69-82.31,34.18-34.25,57.15-69.63,68.34-105.26,31.77-26.74,135.13-130.68,143.58-172.54,4.38-21.72-.27-43.12-13.09-60.28-12.88-17.22-33.06-28.23-55.39-30.19-2.69-.24-5.53-.43-8.56-.64l-4.65-.32c-1.25-.09-2.5-.05-3.73.12-1.08.15-2.15.39-3.19.74l-3.31,1.08c-7.29,2.38-13.42,4.37-19.26,7.31,14.46-48.08,26.47-102.32,17.66-129.45-12.43-38.32-47.77-61.93-87.01-58.78-1.75-6.52-3.82-11.87-6.23-16.17-17.3-30.77-50.62-47.64-84.87-42.98h0Zm-291.66,287.77c8.24-2.04,16.86-6.22,29.95-14.31,7.98-4.94,16.02-7.98,23.88-9.05,6.68-.91,13.32-.37,19.72,1.61,12.73,3.93,23.71,13.91,29.36,26.68,4.08,9.21,7.14,24.02-1.4,42.3-3.16,6.77-13.77,20.56-31.25,24.28-1.72.37-3.43.67-5.06.89-13.6,1.85-24.17-1.18-35.33-10.12-13.3-10.66-15.88-20.4-19.44-33.88-2.28-8.63-4.84-18.3-10.41-28.41h0Z"/>
  </g>
  <g id="Okay">
    <path class="cls-3" d="m299.37,416.32c31-.06,31.23,5.6,60.49-12.48,17.7-10.94,37.9-15.65,58.37-9.32,33.06,10.22,59.28,50.3,38.96,93.8-5.91,12.64-21.33,29.48-43.82,34.27-24.44,5.2-41.18-1.4-55.4-12.79-37.98-30.44-12.56-60.82-58.6-93.47h0Zm274.39-196.38h0c-1.08,7.2-1.16,16.15-.38,29.2,1.96,32.85,3.16,70.84,1.51,107.74-2.77-5.28-5.85-10.53-9.29-15.68-24.24-36.3-72.18-68.21-114.15-79.15-32.58-8.49-63.64-9.5-99.46-1.57-30.6,9.72-65.17,20.26-86.7,46.09-3.42,4.1-5.86,7.48-7.68,10.63-9.69,16.79-9.81,41.51-2.98,59.34,2.51,6.58,5.56,11.33,8.79,15.13,6.15,7.24,13.01,11.05,18.27,17.53-47.98-3.56-77.56,17.35-84.34,56.76-7,40.7,18.74,83.23,37.25,112.03,14.19,20.29,30.56,34.11,47.04,46.54-.57,27.55-1.2,37.18,2.59,66.2,36.06,138.51,172.42,172.12,295.19,128.33,28.81-13.47,61.57-39.51,98.4-78.54,34.1-34.12,55.91-68.52,65.59-103.19.46-.36.92-.71,1.35-1.06,31.48-25.08,133.22-129.73,140.25-164.56,7.07-35.06-16.97-65.86-52.41-68.98-3.94-.35-8.21-.6-12.93-.94-13.87,4.56-21.16,6.53-29.43,13.65-4.74,4.08-9.8,9.85-16.6,18.77-8.33,10.91-17.45,22.52-27.13,34.21,19.65-50.9,57.35-162.78,45.52-199.24-11.88-36.64-48.68-54.39-84.02-43.36-1.84-12.4-4.39-22.25-7.8-28.31-17.98-31.97-54.72-42.69-86.22-28.29-4.29,1.96-8.48,4.39-12.52,7.29-14.76,10.6-24.95,24.98-27.71,43.45Z"/>
    <path class="cls-2" d="m720.08,543.03c-3.59,3.98-9.72,4.3-13.7.72-3.98-3.58-4.3-9.72-.71-13.7,5.77-6.42,10.14-12.05,13.71-17.88,3.56-5.82,6.44-12.03,9.24-19.66,1.83-5.03,7.4-7.62,12.43-5.79,5.03,1.83,7.62,7.4,5.79,12.43-3.24,8.81-6.64,16.1-10.92,23.11-4.27,6.99-9.32,13.51-15.84,20.77h0Zm-21.16-281.51h0c-.03-5.35,4.28-9.71,9.63-9.74,5.35-.03,9.71,4.28,9.74,9.63.09,35.04-2.21,68.88-7.82,103.44-5.63,34.67-14.55,69.89-27.69,107.56-1.76,5.06-7.3,7.74-12.37,5.97-5.06-1.77-7.74-7.3-5.97-12.37,12.84-36.8,21.5-70.92,26.92-104.24,5.43-33.43,7.65-66.24,7.57-100.26h0Zm-229.89,503.69h0c-5.24-1.06-8.63-6.18-7.57-11.42,1.07-5.24,6.18-8.63,11.42-7.57,18.03,3.66,36.14,3.64,54.32-.2,18.32-3.87,36.77-11.64,55.34-23.45,4.52-2.88,10.52-1.55,13.4,2.97,2.88,4.52,1.55,10.52-2.97,13.39-20.58,13.09-41.19,21.74-61.8,26.09-20.74,4.38-41.46,4.39-62.14.19Z"/>
    <path class="cls-2" d="m126.25,320.63c-3.38-5.98-1.27-13.57,4.71-16.95,5.98-3.38,13.57-1.27,16.95,4.71l16.25,28.96c3.38,5.98,1.27,13.57-4.71,16.95-5.98,3.38-13.57,1.27-16.95-4.71l-16.25-28.96h0Zm-12.88,99.31h0c-6.26,2.86-13.65.1-16.5-6.17-2.86-6.26-.1-13.65,6.16-16.5l30.23-13.74c6.26-2.86,13.65-.1,16.5,6.17,2.86,6.26.1,13.65-6.16,16.5l-30.23,13.74Z"/>
  </g>
</svg>