<?xml version="1.0" encoding="UTF-8"?>
<svg id="Layer_1" data-name="Layer 1" xmlns="http://www.w3.org/2000/svg" viewBox="0 0 1000 1000">
  <defs>
    <style>
      .cls-1 {
        fill: #7b8388;
      }

      .cls-2 {
        fill: #e2e9ef;
      }
    </style>
  </defs>
  <path class="cls-1" d="m387.79,220.61c3.73,0,7.7.27,11.9.85,58.8,8.01,73.12,40.97,95.1,71.74,89.17,25.26,206.36-4.86,285.3,53.32,75.79,55.85,118.4,181.58,50.73,259.93-47.39,47.45-106.98,56.38-169.68,56.38-37.81,0-76.73-3.25-114.8-3.24-49.46,0-97.48,5.49-139.63,30.69-53.36,22.29-94.7,67.71-148.28,87.52-5.5,1.1-10.74,1.62-15.72,1.62-66.59,0-86-92.83-41.85-139.03-.31,0-.6,0-.91,0-63.81,0-91.23-88.27-31.26-117.82-35.19-111.54,134.88-129.21,202.59-170.66-44.64-47.87-48.63-131.28,16.51-131.27m0-18h-.02c-28.96,0-50.68,13.28-61.16,37.39-13.09,30.09-5.74,71.91,17.11,106-14.23,6.52-31.17,12.78-48.76,19.29-37.08,13.71-79.1,29.25-108.48,52.48-33.07,26.14-45.99,58.51-38.51,96.37-24.69,18.17-35.73,47.93-28.42,79.33,6.51,27.95,25.95,49.74,50.97,59.43-13.93,28.33-15.52,63.41-2.73,93.31,13.7,32.05,41.71,51.19,74.92,51.19,6.23,0,12.71-.66,19.24-1.96.93-.18,1.84-.44,2.72-.77,30.06-11.11,56.04-29.34,81.18-46.98,22.63-15.87,44-30.87,67.8-40.81.79-.33,1.56-.72,2.3-1.16,41.46-24.79,89.18-28.14,130.39-28.14,18.71,0,38.1.82,56.85,1.61,19.03.8,38.7,1.63,57.95,1.63,59.76,0,128.16-7.32,182.42-61.66.31-.31.6-.63.89-.95,29.72-34.41,42.51-78.69,36.98-128.06-6.88-61.4-41.62-122-90.65-158.13-52.91-38.99-119.19-41.56-183.28-44.05-36.38-1.41-70.87-2.75-101.71-10.47-1.47-2.14-2.92-4.29-4.35-6.4-18.82-27.85-40.16-59.42-99.31-67.48-4.92-.67-9.74-1.01-14.32-1.01h0Z"/>
  <path class="cls-2" d="m406.71,690.26c128.38-76.78,311.01,29.43,424.11-83.83,67.67-78.34,25.06-204.07-50.73-259.93-78.94-58.17-196.13-28.06-285.3-53.32-21.98-30.77-36.3-63.73-95.1-71.74-77.35-10.53-75.6,79.81-28.41,130.43-67.71,41.45-237.78,59.12-202.59,170.66-60.26,29.7-32.3,118.66,32.16,117.82-47.46,49.65-21.48,153.17,57.57,137.41,53.58-19.81,94.92-65.22,148.28-87.52Z"/>
  <path class="cls-1" d="m708.55,378.67c1.65-11.11.15-22.48-5.85-32.18-5.77-9.35-15.31-16.58-26.3-18.28-2.79-.43-5.27-.46-7.8,1.02-2.1,1.23-4.1,3.64-4.65,6.05-1.1,4.84,1.47,11.59,7.07,12.45,2.06.32,4.01.87,5.98,1.55,1.77.61-2.14-1.03-.58-.24.44.22.89.43,1.32.66.86.46,1.7.97,2.51,1.52.68.46,1.76,1.58-.48-.43.36.32.75.61,1.12.93.73.64,1.43,1.31,2.09,2.02.72.77,2.42,3.4.6.55.52.82,1.13,1.58,1.64,2.41s.99,1.69,1.43,2.56c.22.44.42.89.63,1.33.75,1.58-.88-2.36-.26-.6.66,1.88,1.27,3.75,1.67,5.7.1.49.18.98.27,1.47.33,1.76-.25-2.62-.09-.71.08.92.16,1.83.2,2.75.03,1,.03,2.01-.02,3.01-.04.91-.58,4.87-.02,1.06-.41,2.8-.47,5.26,1.02,7.8,1.23,2.1,3.64,4.1,6.05,4.65,2.59.59,5.5.46,7.8-1.02,2.06-1.33,4.28-3.51,4.65-6.05h0Z"/>
  <path class="cls-1" d="m687.72,419.09c53.95,9.22,112.49,53.15,111.7,112.75-.23,17.06-6.07,33.04-15.06,47.39-6.94,11.07,10.57,21.25,17.49,10.22,18.2-29.03,23.22-64.39,10.75-96.66-12.1-31.33-36.33-56.75-65.21-73.43-16.74-9.67-35.22-16.53-54.27-19.78-5.38-.92-10.9,1.43-12.45,7.07-1.34,4.87,1.65,11.53,7.07,12.45h0Z"/>
  <path class="cls-1" d="m233.04,628.18c27.99-20.18,57.78-37.59,89.3-51.66,36.94-16.49,75.84-28.45,114.91-38.73,28.88-7.6,58.01-14.21,87.22-20.4,12.74-2.7,7.35-22.23-5.38-19.53-84.72,17.96-171.21,38.68-247.34,81.43-16.92,9.5-33.2,20.06-48.93,31.4-4.43,3.19-6.58,8.81-3.63,13.85,2.56,4.37,9.39,6.85,13.85,3.63h0Z"/>
  <path class="cls-1" d="m214.88,516.37c61.15-37.91,131.76-63.97,203.74-70,16.32-1.37,32.73-1.64,49.08-.46,13,.94,12.94-19.31,0-20.25-68.93-4.98-139.56,13.22-202.16,41-21.01,9.32-41.34,20.12-60.88,32.23-11.05,6.85-.9,24.38,10.22,17.49h0Z"/>
  <path class="cls-1" d="m403.68,362.56c23.47-1.53,46.6,2.33,69.6,6.56,5.37.99,10.92-1.48,12.45-7.07,1.35-4.92-1.67-11.46-7.07-12.45-24.69-4.54-49.78-8.93-74.98-7.28-5.46.36-10.12,4.4-10.12,10.12,0,5.2,4.64,10.48,10.12,10.12h0Z"/>
</svg>