<?xml version="1.0" encoding="UTF-8"?>
<svg id="Layer_1" data-name="Layer 1" xmlns="http://www.w3.org/2000/svg" viewBox="0 0 1000 1000">
  <defs>
    <style>
      .cls-1 {
        fill: #7b8388;
      }

      .cls-2 {
        fill: #e2e9ef;
      }
    </style>
  </defs>
  <path class="cls-1" d="m644.27,226.44c3.13,0,6.29.11,9.47.35,111.7,8.46,211.26,107.27,212.45,220.16,145.64,190.37-107.47,326.61-310.75,326.61-9.3,0-18.51-.29-27.57-.86-54.65-3.49-116.64-46.9-91.39-112.23-46.15-13.62-58.97-95.32-27.74-126.28-43.35-6.99-71.75-54.29-52.49-94.79-48.7,11.16-104.08,31.94-155.61,31.94-26.81,0-52.59-5.63-75.82-21.17-95.62-63.95,33.62-128.7,97.5-152.81,95.37-36,195.45-34.78,294.8-44.64,43.25-4.29,83.39-26.28,127.15-26.28m0-18h0c-26.79,0-51.55,7.21-75.5,14.19-18.4,5.36-35.77,10.42-53.44,12.18-22.47,2.23-45.46,3.92-67.69,5.56-76.53,5.63-155.67,11.46-231.69,40.15-40.76,15.38-136.27,57.38-142.87,114.94-2.95,25.74,11.08,49.19,41.72,69.68,24.36,16.29,52.43,24.2,85.83,24.2,39.38,0,79.19-10.93,117.68-21.49,4.69-1.29,9.29-2.55,13.83-3.78-.42,14.1,2.85,28.35,9.77,41.54,8.8,16.77,22.68,30.14,39.19,38.36-8.4,19.8-10.02,44.91-3.73,69.85,6.32,25.07,19.8,45.02,37.42,56.3-5.11,23.51-1.2,46.1,11.59,66.09,19.46,30.42,58.84,51.8,100.32,54.45,9.35.6,19.01.9,28.71.9,132.61,0,302.35-58.29,355.72-166.33,20.02-40.53,31.23-105.15-27.12-184.49-2.19-56.67-26.81-111.72-69.76-155.63-43.12-44.08-101.14-71.89-159.18-76.28-3.55-.27-7.19-.4-10.82-.4h0Z"/>
  <path class="cls-2" d="m866.18,446.95c-1.18-112.89-100.75-211.7-212.45-220.16-47.5-3.6-90.27,21.33-136.62,25.93-99.35,9.85-199.43,8.64-294.8,44.64-63.88,24.11-193.12,88.87-97.5,152.81,67.89,45.4,157.4,6.19,231.43-10.78-19.27,40.5,9.14,87.8,52.49,94.79-31.23,30.96-18.41,112.66,27.74,126.28-25.25,65.34,36.74,108.74,91.39,112.23,206.83,13.23,490.62-126.66,338.31-325.75Z"/>
  <path class="cls-1" d="m384.47,435.48c43.51-8.18,86.41-24.17,126.24-43.24,4.93-2.36,6.23-9.41,3.63-13.85-2.95-5.04-8.9-6-13.85-3.63-38.27,18.32-79.61,33.34-121.4,41.19-5.38,1.01-8.43,7.5-7.07,12.45,1.55,5.64,7.06,8.09,12.45,7.07h0Z"/>
  <path class="cls-1" d="m567.67,334.58c3.49,11.51,10.65,21.97,17.79,31.49,6.89,9.18,14.3,18.9,23.97,25.32-1.55-3.81-3.1-7.62-4.65-11.43-13.8,37.44-3.85,77.33,23.31,105.98,24.89,26.25,62.06,42.61,98.37,41.77,16.13-.38,33.99-3.8,47.14-13.69,11.91-8.96,18.28-21.93,20.13-36.55,3.99-31.61-10.07-64.59-23.08-92.58-14.47-31.15-32.59-60.21-49.64-89.96-6.48-11.31-23.98-1.12-17.49,10.22,13.59,23.72,27.98,46.93,40.48,71.27,7.3,14.21,14.07,28.57,19.54,43.49,2.58,7.01,4.88,14.14,6.74,21.38.89,3.49,1.69,7.01,2.34,10.55.26,1.44.51,2.88.72,4.32.5,3.43-.1-.97.13,1.03.12,1.04.23,2.09.31,3.13.26,3.02.38,6.05.32,9.08-.03,1.45-.09,2.9-.21,4.34-.06.78-.14,1.57-.23,2.35-.08.63.22-1.07-.18.97-.53,2.65-1.21,5.19-2.05,7.76-.71,2.15.45-.48-.82,1.97-.66,1.27-1.32,2.53-2.09,3.74-2.17,3.43-5.54,6.67-9.76,9.15-5.7,3.35-11.33,4.97-18.79,6.43-29.45,5.74-63.46-5.2-87.03-24.67-13.24-10.93-24.53-24.97-30.11-41.17-6.25-18.17-5.19-36.81,1.49-54.92,1.6-4.35-1.13-9.09-4.65-11.43-.58-.39-1.86-1.4-.61-.39-.78-.63-1.52-1.31-2.26-1.99-1.75-1.62-3.4-3.34-5.01-5.09-3.45-3.75-6.7-7.69-9.73-11.79-5.72-7.73-12.44-17.49-14.85-25.45-3.77-12.44-23.32-7.14-19.53,5.38h0Z"/>
  <path class="cls-1" d="m617.24,372.89c-30.66-5.51-59.96,3.3-85.64,20.32-4.55,3.02-6.5,8.94-3.63,13.85,2.64,4.52,9.28,6.67,13.85,3.63,12.75-8.46,25.83-14.95,40.83-18,1.51-.31,3.03-.57,4.56-.81.72-.11,1.38-.16.27-.04.81-.09,1.61-.18,2.42-.25,2.78-.25,5.58-.37,8.37-.36,2.61.01,5.22.14,7.83.38.79.07,4.21.51,1.82.17,1.31.19,2.62.4,3.92.64,5.38.97,10.91-1.46,12.45-7.07,1.35-4.9-1.66-11.48-7.07-12.45h0Z"/>
  <path class="cls-1" d="m456.32,541.62c66.23,3.29,139.75.35,195.94-39.25,4.46-3.15,6.56-8.85,3.63-13.85-2.58-4.42-9.36-6.8-13.85-3.63-53.43,37.65-122.82,39.61-185.72,36.49-13.03-.65-12.99,19.61,0,20.25h0Z"/>
  <path class="cls-1" d="m719.17,734.02c22.64-7.24,37.03-26.53,39.43-49.91,2.28-22.24-7.55-44.88-25.39-58.29-11.25-8.46-25.14-12.2-39.09-12.44-13.04-.22-13.04,20.03,0,20.25,9.41.16,17.48,2.11,25.39,7.22.93.6,1.85,1.22,2.73,1.89-1.41-1.07.85.74,1.22,1.07,1.74,1.53,3.32,3.19,4.86,4.91.3.34.59.7.88,1.05,1.01,1.22-.84-1.16.09.11.62.86,1.23,1.73,1.8,2.62,1.14,1.77,2.18,3.61,3.11,5.5.17.35,1.31,2.92.97,2.08s.61,1.69.76,2.15c.72,2.12,1.32,4.28,1.79,6.47.22,1.02.4,2.04.58,3.07.3,1.76,0-1.07.13,1.29.13,2.22.27,4.42.2,6.64-.03,1.03-.09,2.06-.17,3.08-.05.56-.48,3.48-.11,1.24-.33,2.01-.74,4.01-1.29,5.98-.27.98-.57,1.95-.9,2.91-.21.62-1.15,3-.39,1.22-.85,1.99-1.86,3.91-2.99,5.76-4.17,6.82-11.08,12.07-19,14.6-12.36,3.95-7.08,23.51,5.38,19.53h0Z"/>
  <path class="cls-1" d="m527.39,655.5c31.57-4.22,62.99-9.36,94.51-13.91,14.55-2.1,29.12-4.05,43.74-5.59,12.63-1.33,25.7-1.18,38.18-3.58,37.2-7.15,55.12-49.67,45.58-83.86-5.65-20.25-20.72-35.85-40.96-41.69-12.54-3.62-17.9,15.91-5.38,19.53,13.15,3.79,22.33,13.33,26.23,25.57,3.92,12.32,3.21,26.83-2.17,37.88-3.35,6.88-6.09,10.87-12.03,15.74-1.23,1.01-5.19,3.5-8.08,4.81-.18.08-2.18.84-3.66,1.29-1.98.6-4,1.09-6.05,1.41,1.58-.25-2.25.23-1.99.21-1.25.1-2.51.15-3.76.23-2.9.18-5.8.38-8.7.61-6.68.53-13.35,1.17-20.01,1.9-13.82,1.51-27.6,3.35-41.36,5.3-31.39,4.45-62.68,9.7-94.11,13.9-5.42.72-10.12,4.14-10.12,10.12,0,4.91,4.67,10.85,10.12,10.12h0Z"/>
</svg>