<?xml version="1.0" encoding="UTF-8"?>
<svg id="Layer_1" data-name="Layer 1" xmlns="http://www.w3.org/2000/svg" viewBox="0 0 1000 1000">
  <defs>
    <style>
      .cls-1 {
        fill: #7b8388;
      }

      .cls-2 {
        fill: #e2e9ef;
      }
    </style>
  </defs>
  <g>
    <path class="cls-1" d="m523.07,913.59c-37.83,0-72.88-10.15-98.69-28.59-19.21-13.72-32.39-27.04-44.07-44.56-8.44-12.66-14.25-27.34-17.86-45.34-2.17,1.61-4.58,3.18-7.32,4.77-12.48,7.24-23.01,9.29-36.98,10.4-1.68.13-3.37.2-5.07.2-13.62,0-28.52-4.22-41.97-11.89-28.65-16.33-39.78-47.36-45.67-69.28-5.2-19.36-8.74-38.11-10.8-57.32-.9-8.33-1.06-15.97-.49-23.35.81-10.5,1.97-22.65,5.36-33.99,9.35-31.23,32.33-57.76,63.56-73.66-.73-13.92,1.25-28,5.92-41.96l.06-.37c.1-.64.2-1.28.32-1.92,1.1-5.83,2.68-11.47,4.7-16.72l.31-.81c3.62-9.37,7.36-19.07,13.61-27.8,12.7-17.75,26.59-30.55,43.69-40.31,8.6-4.9,17.63-8.76,26.37-12.49l3.66-1.57c29.86-12.83,59.55-24.44,94.4-25.62.99-.03,1.97-.05,2.95-.05.78,0,1.54,0,2.3.03-.76-6.12-1.29-12.63-1.25-19.24.07-10.13,1.51-20.05,2.91-29.64l.36-2.43c1.68-11.52,4.52-23.79,8.68-37.52,9.22-30.32,18.94-56.95,29.71-81.41,11.63-26.43,27.74-50.04,46.57-68.29,23.86-23.13,52.21-38.97,79.82-44.61,6.13-1.25,11.72-1.85,17.09-1.85,9.03,0,17.54,1.74,26.01,5.31,11.03,4.66,19.57,11.23,26.87,20.69,16.79,21.73,18.85,51.73,5.14,74.66-16.93,28.32-36.12,60.42-50.98,93.91-7.93,20.13-13.51,39.45-16.88,58.69-1.4,13.8-1.5,27.4-.29,40.46,2.53,13.37,6.5,26.9,12.12,41.34,10.09,22.6,23.3,46.78,41.41,75.69,8.36,13.36,17.23,26.63,26.36,39.46,1.7,2.38,3.41,4.76,5.13,7.13,7.42,10.28,15.1,20.91,21.39,32.52,16.85,31.13,25.34,65.8,24.55,100.27-.75,33.17-9.19,66.33-25.07,98.56-12.67,25.71-32.35,50.46-55.42,69.69-15.03,12.53-27.84,21.77-40.32,29.07-14.72,8.61-30.45,15.24-45.26,21.11-28.52,11.32-60.27,17.73-91.84,18.55-1.71.05-3.42.07-5.14.07Z"/>
    <path class="cls-1" d="m665.27,95.99c7.52,0,14.78,1.39,22.29,4.56,9.46,3.99,16.73,9.59,23.01,17.71,13.89,17.98,16.4,43.98,4.5,63.89-18.49,30.92-36.89,61.98-51.51,94.95-7.83,19.83-13.96,40.25-17.61,61.26-1.48,14.35-1.65,28.75-.29,43.12,2.78,14.89,7.19,29.36,12.68,43.48,11.95,26.8,26.66,52.46,42.22,77.3,8.5,13.57,17.4,26.89,26.68,39.93,8.99,12.63,18.5,24.99,25.9,38.65,15.78,29.14,24.16,62.29,23.4,95.48-.76,33.34-9.42,64.77-24.09,94.54-12.42,25.21-31.39,48.58-52.96,66.57-12.29,10.25-25.18,20.06-39.02,28.16-13.98,8.17-28.94,14.52-43.96,20.48-27.82,11.04-58.69,17.1-88.55,17.87-1.63.04-3.26.06-4.9.06-32.08,0-66.86-8.06-93.11-26.8-17.06-12.18-29.97-24.54-41.66-42.07-11.9-17.85-16.77-38.37-19.09-59.33-.03-.26-.04-.54-.06-.8-5.18,6.57-9.84,11.38-18.81,16.58-11.13,6.45-20.36,8.14-32.93,9.14-1.43.11-2.86.17-4.3.17-12.88,0-26.27-4.38-37.23-10.63-23.6-13.46-34.46-38.51-41.16-63.43-4.95-18.45-8.48-36.82-10.53-55.86-.77-7.17-1.02-14.4-.46-21.59.82-10.6,1.92-21.72,4.99-31.98,9.75-32.56,34.3-57.06,64.48-70.62-1.84-15.69.22-30.98,5.16-45.44.17-.93.28-1.87.46-2.8.97-5.15,2.35-10.18,4.24-15.06,3.5-9.07,7.06-18.51,12.77-26.48,11.1-15.51,23.92-28.03,40.65-37.56,9.28-5.29,19.27-9.37,29.07-13.58,29.65-12.74,58.17-23.73,90.93-24.85.88-.03,1.75-.04,2.62-.04,4.56,0,9.05.39,13.56.9-1.64-9.77-2.98-19.74-2.91-29.64.06-10.29,1.7-20.62,3.17-30.76,1.78-12.28,4.76-24.25,8.37-36.12,8.31-27.32,17.79-54.18,29.3-80.33,10.57-24.02,25.58-46.96,44.47-65.27,20.51-19.87,46.82-36.33,75.07-42.1,5.26-1.07,10.26-1.66,15.16-1.66m0-19.17c-6.02,0-12.23.67-18.99,2.05-29.37,5.99-59.41,22.73-84.58,47.12-19.72,19.11-36.55,43.77-48.68,71.31-10.93,24.82-20.77,51.8-30.1,82.48-4.31,14.18-7.25,26.92-9,38.94l-.36,2.44c-1.45,9.91-2.95,20.15-3.01,30.95-.02,3.37.1,6.71.31,9.97-34.36,2.1-63.57,13.56-92.9,26.16l-3.61,1.54c-9,3.84-18.3,7.81-27.38,12.99-18.1,10.32-33.39,24.4-46.74,43.06-6.96,9.73-11.11,20.47-14.77,29.95l-.3.79c-2.23,5.78-3.98,11.98-5.19,18.43-.11.58-.21,1.17-.3,1.76-4.2,12.8-6.31,25.72-6.31,38.57-30.82,17.33-53.46,44.66-63.01,76.57-3.67,12.25-4.88,25-5.74,35.99-.62,7.97-.45,16.19.51,25.13,2.12,19.69,5.75,38.92,11.08,58.78,6.33,23.58,18.42,57.01,50.18,75.12,14.87,8.48,31.47,13.15,46.73,13.15,1.96,0,3.91-.08,5.82-.23,13.61-1.08,24.84-3.14,37.3-9.62,3.33,11.61,8.35,23.91,16.11,35.55,12.36,18.53,26.25,32.6,46.47,47.04,27.43,19.59,64.45,30.38,104.26,30.38,1.81,0,3.6-.02,5.39-.07,32.68-.84,65.58-7.49,95.13-19.22,15.15-6.01,31.28-12.81,46.56-21.75,12.94-7.57,26.17-17.1,41.62-29.98,24.08-20.08,44.64-45.94,57.88-72.82,16.5-33.49,25.27-68,26.06-102.58.83-36.14-8.06-72.47-25.71-105.05-6.59-12.17-14.46-23.07-22.07-33.6-1.69-2.35-3.39-4.69-5.06-7.04-9.03-12.68-17.79-25.8-26.05-38.99-17.75-28.34-30.71-52.02-40.77-74.51-5.25-13.56-8.98-26.26-11.38-38.77-1.1-12.2-1.01-24.91.28-37.81,3.25-18.37,8.58-36.86,16.3-56.48,14.6-32.86,33.55-64.54,50.28-92.52,15.72-26.29,13.4-60.63-5.78-85.45-8.24-10.67-18.3-18.41-30.73-23.66-9.68-4.09-19.41-6.07-29.75-6.07h0Z"/>
  </g>
  <g>
    <path class="cls-2" d="m753.14,580.84c-7.4-13.67-16.91-26.02-25.9-38.65-9.28-13.04-18.18-26.36-26.68-39.93-15.56-24.83-30.27-50.49-42.22-77.3-5.5-14.12-9.9-28.59-12.68-43.48-1.37-14.37-1.2-28.76.29-43.12,3.66-21.01,9.79-41.43,17.61-61.26,14.62-32.97,33.02-64.03,51.51-94.95,11.9-19.9,9.39-45.91-4.5-63.89-6.28-8.12-13.55-13.72-23.01-17.71-12.41-5.24-24.12-5.62-37.45-2.9-28.26,5.77-54.57,22.23-75.07,42.1-18.89,18.31-33.9,41.25-44.47,65.27-11.51,26.15-21,53.01-29.3,80.33-3.61,11.87-6.59,23.83-8.37,36.12-1.47,10.14-3.11,20.46-3.17,30.76-.06,9.9,1.27,19.87,2.91,29.64-5.37-.62-10.71-1.05-16.18-.86-32.76,1.12-61.28,12.11-90.93,24.85-9.8,4.21-19.79,8.29-29.07,13.58-16.72,9.54-29.54,22.05-40.65,37.56-5.71,7.98-9.27,17.41-12.78,26.48-1.89,4.88-3.27,9.92-4.24,15.06-.18.93-.29,1.87-.46,2.8-4.94,14.45-7,29.75-5.16,45.44-30.18,13.56-54.74,38.06-64.48,70.62-3.07,10.26-4.17,21.37-4.99,31.98-.56,7.19-.31,14.42.46,21.59,2.05,19.04,5.58,37.41,10.53,55.86,6.69,24.92,17.55,49.98,41.15,63.43,12.19,6.95,27.37,11.59,41.53,10.46,12.57-1,21.8-2.69,32.93-9.14,8.97-5.2,13.62-10.01,18.81-16.58.03.27.03.54.06.8,2.32,20.96,7.19,41.48,19.09,59.33,11.69,17.54,24.6,29.89,41.66,42.07,27.59,19.71,64.61,27.6,98.02,26.74,29.86-.77,60.72-6.83,88.55-17.87,15.02-5.96,29.98-12.31,43.96-20.48,13.84-8.09,26.73-17.9,39.02-28.16,21.57-17.99,40.54-41.36,52.96-66.57,14.67-29.77,23.33-61.21,24.09-94.54.76-33.2-7.62-66.35-23.4-95.48Z"/>
    <path class="cls-1" d="m323.98,685.95c17.39,20.4,45.61,25.42,70.85,20.57,5.55-1.07,9.23-8.03,7.53-13.27-1.92-5.92-7.32-8.67-13.27-7.53-4.93.95-9.39,1.38-15.54,1.13-1.48-.06-2.95-.2-4.42-.33-1.27-.15-1.27-.15.01.01-.63-.1-1.26-.2-1.9-.32-2.37-.44-4.7-1.01-7-1.71-1.07-.33-2.14-.68-3.19-1.07-.6-.22-1.2-.45-1.79-.69,1.1.47,1.08.45-.06-.06-2.15-1.07-4.27-2.14-6.3-3.41-.94-.59-1.85-1.23-2.77-1.86-.99-.74-1.02-.75-.09-.04-.49-.4-.98-.81-1.46-1.22-1.92-1.68-3.69-3.5-5.34-5.44-3.67-4.31-11.53-4.06-15.25,0-4.21,4.59-3.92,10.66,0,15.25h0Z"/>
    <path class="cls-1" d="m374.12,702.78c.62,1.8,1.14,3.62,1.52,5.49.04.21.29,2.31.43,2.4-.19-1.52-.22-1.67-.08-.44l.08.81c.31,3.67.24,7.36-.1,11.02-.09.97-.17,1.96-.33,2.93.3-1.85.08-.68-.11.48-.3,1.81-.65,3.61-1.02,5.4-.79,3.73-1.71,7.43-2.63,11.13-1.36,5.47,1.76,11.95,7.53,13.27,5.58,1.27,11.81-1.68,13.27-7.53,4.1-16.47,7.94-34.09,2.24-50.69-1.83-5.32-7.49-9.4-13.27-7.53-5.28,1.71-9.49,7.55-7.53,13.27h0Z"/>
    <path class="cls-1" d="m328.51,559.08c29.74-1.92,60.43,1.84,87.53,14.15,9.74,4.43,19.08,9.77,27.79,16,.8.57,1.6,1.16,2.39,1.75.51.38,1.02.76,1.53,1.15-.12-.09-1.3-1.02-.35-.27,1.69,1.33,3.35,2.69,4.99,4.1,2.42,2.08,4.77,4.24,7.04,6.49,1.75,1.73,3.45,3.51,5.07,5.37,1.27,1.46,3.01,3.77.21.09,3.53,4.62,9.29,7.07,14.76,3.87,4.55-2.66,7.43-10.1,3.87-14.76-22.17-29.03-59.38-47.56-94.29-55.2-19.86-4.34-40.26-5.62-60.52-4.31-13.78.89-13.88,22.47,0,21.57h0Z"/>
    <path class="cls-1" d="m366.54,472.7c32.51-6.63,66.34,3.43,95.31,18.01,11.31,5.69,22.23,12.19,32.66,19.36,3.24,2.23,6.4,4.55,9.55,6.89,1.97,1.47-1.85-1.47.91.72.31.24.61.49.91.74,4.48,3.72,10.87,4.39,15.25,0,3.83-3.83,4.5-11.51,0-15.25-30.29-25.15-69.06-45.14-107.94-51.7-17.51-2.95-34.95-3.12-52.39.43-13.59,2.77-7.84,23.57,5.73,20.8h0Z"/>
    <path class="cls-1" d="m504.57,402.55c8.58,3.67,16.74,8.23,24.33,13.67.86.61,1.7,1.25,2.54,1.87.94.72.83.62-.35-.28.4.31.8.62,1.19.94,1.52,1.22,3.02,2.47,4.49,3.75,2.65,2.32,5.22,4.75,7.68,7.27,2.06,2.11,4.05,4.29,5.96,6.54.8.94,1.58,1.89,2.34,2.85.58.73,1.77,2.61-.44-.59.28.4.59.78.88,1.17,1.15,1.55,2.3,3.12,3.3,4.78,2.92,4.82,9.81,7.06,14.76,3.87,4.85-3.12,7-9.59,3.87-14.76-9-14.84-22.88-27.42-36.99-37.19-7.12-4.93-14.72-9.1-22.69-12.51-5.17-2.21-11.8-1.72-14.76,3.87-2.45,4.63-1.67,12.39,3.87,14.76h0Z"/>
  </g>
</svg>