<?xml version="1.0" encoding="UTF-8"?>
<svg id="Layer_1" data-name="Layer 1" xmlns="http://www.w3.org/2000/svg" viewBox="0 0 1000 1000">
  <defs>
    <style>
      .cls-1 {
        fill: #7b8388;
      }

      .cls-2 {
        fill: #e2e9ef;
      }
    </style>
  </defs>
  <g>
    <path class="cls-1" d="m535.46,942.58c-65.45,0-144.37-47.73-211.11-127.66-63.65-76.23-103.19-165.78-103.19-233.7,0-46.04,18.75-123.29,144.31-123.29,7.53,0,15.41.29,23.54.86-16.35-77.91-45.45-305.95,10.87-378.03,12.1-15.49,27.4-23.35,45.47-23.35s40.38,8.81,64.39,26.2c45.93,33.26,41.58,136.8,38.07,220-.51,12.04-.99,23.55-1.29,34.19.16,3.29.25,6.66.34,10.04.42,15.76.86,32.07,9.18,41.11,18.73,20.37,49.99,35.1,83.09,50.7,59.77,28.17,127.5,60.09,135.07,135.97,16.72,82.89-13.11,194.86-72.65,272.5-31.05,40.49-83.62,89.7-157.71,94.21-2.78.17-5.57.25-8.37.25h-.02Z"/>
    <path class="cls-1" d="m445.34,67c16.01,0,35.42,7.47,58.77,24.38,48.19,34.89,35.04,165.72,32.82,246.53,1.03,20.32-.8,43.55,12.06,57.54,55.27,60.11,205.07,70.64,215.73,181.6,27.55,134.87-71.75,346.61-221.44,355.72-2.59.16-5.19.24-7.81.24-202.15,0-470.89-465.53-169.99-465.48,11.13,0,23.08.64,35.79,1.96-20.74-83.21-60.68-402.48,44.08-402.48m0-19.17c-20.87,0-39.21,9.35-53.02,27.03-56.48,72.28-32.37,284.18-15.17,373.7-3.97-.14-7.86-.21-11.68-.21h-.05c-83.1,0-120.24,34.11-136.77,62.73-31.78,55.03-19.15,140.04,34.64,233.23,57.79,100.11,167.62,207.87,272.17,207.87,3,0,6.02-.09,8.97-.27,60.62-3.69,119.12-38.47,164.73-97.94,61.96-80.79,91.84-193.07,74.53-279.77-8.34-80.92-78.52-114.01-140.48-143.21-32.22-15.19-62.66-29.53-80.12-48.52-5.89-6.41-6.28-20.89-6.66-34.89-.09-3.33-.18-6.63-.33-9.87.29-10.45.77-21.75,1.27-33.69,3.6-85.5,8.08-191.9-42.03-228.17-26.04-18.85-48.94-28.02-70.01-28.02h0Z"/>
  </g>
  <g>
    <path class="cls-2" d="m764.71,577.05c-10.66-110.97-160.46-121.49-215.73-181.6-12.86-13.99-11.03-37.21-12.06-57.54,2.22-80.81,15.38-211.64-32.82-246.53-176.15-127.53-126.75,282.17-102.84,378.1-361.06-37.54-68.31,476.08,142.01,463.28,149.7-9.11,249-220.84,221.44-355.72Z"/>
    <path class="cls-1" d="m289.35,596.62c-7.82,35.64,1.92,70.42,24.42,98.62,17.95,22.49,43.52,43.32,74.12,40.39,57.49-5.51,70.78-68.53,66.24-116.45-2.68-28.31-10.13-57.52-25.81-81.56-7.55-11.59-26.24-.79-18.63,10.89,11.68,17.92,18,38.61,21.47,59.77,3.41,20.8,3.53,42.97-1.66,63.09-2.48,9.62-5.48,17.2-11.24,25.36-3.88,5.51-11.21,11.42-16.92,13.74-24.96,10.17-47.23-2.56-64.1-20.84-10.09-10.93-19.01-23.15-23.91-37.32-5.57-16.09-6.86-33.3-3.2-49.96,2.97-13.53-17.82-19.31-20.8-5.73h0Z"/>
    <path class="cls-1" d="m450.09,462.72c.33-.28.81-.55,1.09-.89-.67.81-1.96,1.43-.51.43,1.16-.8,2.32-1.6,3.51-2.36,2.66-1.7,5.39-3.3,8.14-4.84,6.67-3.75,13.49-7.22,20.35-10.6,12.71-6.26,25.59-12.17,38.54-17.9,2.81-1.24,5.62-2.48,8.44-3.69,5.35-2.3,6.55-10.17,3.87-14.76-3.24-5.53-9.38-6.18-14.76-3.87-22.32,9.59-44.66,19.63-65.92,31.41-6.29,3.48-12.49,7.17-18,11.83-4.45,3.76-3.88,11.38,0,15.25,4.41,4.41,10.79,3.77,15.25,0h0Z"/>
    <path class="cls-1" d="m447.11,594.75c10.76-13.91,22.36-27.24,34.28-40.16,21.02-22.76,43.66-45.41,71.46-59.74,15.47-7.97,33.28-14.41,50.87-14.59,13.87-.15,13.91-21.72,0-21.57-35.07.37-68.94,18.53-95.47,40.19-23.22,18.95-43.75,41.3-63.02,64.19-4.55,5.4-9.06,10.85-13.38,16.43-3.56,4.6-4.49,10.77,0,15.25,3.71,3.71,11.67,4.63,15.25,0h0Z"/>
    <path class="cls-1" d="m625.93,616.25c-14.19,13.39-27.8,31.46-28.05,51.86-.21,16.98,10.8,30.59,26.68,35.69,10.31,3.3,21.39,2.65,31.89.81,5.74-1.01,8.97-8.04,7.53-13.27-1.67-6.06-7.51-8.54-13.27-7.53-.7.13-1.4.25-2.11.35,1.14-.14,1.07-.13-.22.03-1.32.13-2.63.26-3.96.33-2.16.11-4.33.12-6.49-.02-.59-.04-4.37-.56-1.42-.07-1.08-.18-2.15-.37-3.21-.61-1.76-.41-3.44-.98-5.14-1.58,2.89,1.02-.07-.09-.7-.42-.82-.44-1.59-.95-2.38-1.42-.38-.25-.75-.51-1.11-.78,1.29,1.01,1.5,1.16.62.43-.45-.47-.97-.88-1.43-1.35-.3-.31-.6-.63-.88-.96-.73-.87-.57-.65.47.67-.57-.43-1.06-1.54-1.42-2.15-.37-.63-1.07-1.58-1.17-2.3.41,2.85.35.76.06-.18-.23-.75-.39-1.51-.58-2.26-.77-2.95-.04,1.37-.1-.54-.06-1.83-.06-3.61.04-5.44.16-2.84-.44,1.64.09-.57.25-1.05.44-2.11.72-3.16.29-1.09.63-2.18,1-3.25.1-.3,1.29-3.25.76-2.04s.88-1.82,1.03-2.1c.59-1.17,1.22-2.32,1.88-3.46,1.33-2.28,2.79-4.49,4.35-6.62,1.08-1.48,2.58-3.29,4.56-5.49,2.29-2.55,4.72-4.97,7.21-7.32,4.24-4,4.04-11.22,0-15.25-4.23-4.23-11-4.01-15.25,0h0Z"/>
    <path class="cls-1" d="m413.68,773.02c-2.21,38.31,18.74,72.58,44.97,98.74,24.51,24.44,55.68,47.91,91.98,46.97,13.86-.36,13.91-21.93,0-21.57-30.46.79-56.29-20.26-76.73-40.65-22.41-22.34-40.54-50.69-38.65-83.48.8-13.87-20.77-13.82-21.57,0h0Z"/>
    <path class="cls-1" d="m625.93,616.25c-28.71,23.14-30.71,63.11-44.15,94.88-6.23,14.71-15.69,27.65-30.41,35.24-7.1,3.66-13.49,5.12-20.85,5.06-.71,0-1.46-.08-2.16-.15,1.79.19.03,0-.3-.06-1.72-.32-3.39-.77-5.05-1.3-1.96-.62-.77-.22-.3-.03-.94-.39-1.86-.87-2.75-1.36-.79-.44-4.05-2.67-2.91-1.77-5.27-4.17-8.23-9.23-10.09-15.14-2.65-8.46-2.89-17.09-1.85-26.12,2.02-17.58,9.54-33.77,16.52-49.81,4.75-10.92,9.75-21.77,15.94-31.97,7.01-11.56,13.27-19.51,24.03-28.75,11.43-9.82,27.71-17.9,43.5-22.43,24.33-6.98,49.81-8.05,74.97-7.05,13.88.55,13.86-21.02,0-21.57-42.29-1.68-88.92,2.72-124.25,28.36-23.82,17.28-39.07,41.5-50.83,68.02-7.63,17.2-15.97,34.5-19.63,53.05-3.89,19.71-3.83,42.48,8.26,59.55,25.1,35.45,73.72,18.08,95.65-11.31,13.06-17.5,18.65-39.26,24.78-59.85,5.65-19,11.53-37.63,27.15-50.22,4.54-3.66,3.81-11.44,0-15.25-4.49-4.49-10.7-3.67-15.25,0h0Z"/>
    <path class="cls-1" d="m324.72,736.48c-.09-.5-.18-.99-.26-1.49-.18-1.2-.16-1,.06.62-.28-.74-.21-1.85-.27-2.64-.16-1.89-.23-3.78-.22-5.67,0-1.77.09-3.53.24-5.29.05-.57-.06-1.74.23-2.26-.23,1.61-.25,1.82-.07.62.08-.5.16-1,.25-1.49.62-3.48,1.53-6.91,2.7-10.24.3-.85.55-2.09,1.07-2.83-.61,1.41-.67,1.57-.2.49.1-.23.21-.46.31-.69.85-1.83,1.79-3.62,2.8-5.37,2.82-4.89,1.3-12.02-3.87-14.76-5.14-2.72-11.75-1.35-14.76,3.87-9.26,16.07-12.11,34.7-8.83,52.88,1.01,5.57,8.07,9.21,13.27,7.53,5.97-1.93,8.61-7.3,7.53-13.27h0Z"/>
    <path class="cls-1" d="m414.62,708.17c3.7,12.82,16.38,21.16,28.72,24.34,15.82,4.08,32.22.51,44.96-9.64,8.74-6.96,14.32-16.62,18.49-26.81,2.14-5.24-2.32-12.08-7.53-13.27-6.27-1.43-10.98,1.92-13.27,7.53.63-1.53-.33.73-.55,1.19-.42.89-.86,1.77-1.32,2.63-.94,1.77-1.97,3.5-3.09,5.17-.23.34-1.71,2.39-.95,1.39.76-1-.76.9-1.02,1.2-1.23,1.41-2.54,2.75-3.95,3.99-.29.26-2.16,1.81-.97.87s-.7.48-1.02.7c-1.3.88-2.65,1.68-4.04,2.4-.62.32-1.29.58-1.9.91,1.41-.77,1.34-.5,0-.05-1.39.47-2.79.92-4.22,1.25-.65.15-1.3.27-1.96.41-2.14.46.9-.03.26,0-1.41.06-2.8.25-4.21.26-1.39.01-2.76-.09-4.14-.17-2.17-.13,1.02.22.38.08-.71-.15-1.43-.23-2.14-.38-2.48-.51-4.8-1.35-7.19-2.16-.64-.21,2.29,1.12.46.16-.5-.26-1.02-.5-1.52-.76-1.06-.56-2.09-1.17-3.08-1.84-.4-.27-2.17-1.61-.63-.4,1.59,1.25-.37-.35-.69-.64-.85-.77-1.54-1.71-2.38-2.48-.18-.17,1.46,2.25.42.5-.27-.45-.54-.91-.82-1.35-1.14-1.79.52.06.24.81.08-.21-.47-1.37-.54-1.6-1.61-5.6-7.6-9.09-13.27-7.53-5.58,1.53-9.15,7.65-7.53,13.27h0Z"/>
  </g>
</svg>