<?xml version="1.0" encoding="UTF-8"?>
<svg id="Layer_1" data-name="Layer 1" xmlns="http://www.w3.org/2000/svg" viewBox="0 0 1000 1000">
  <defs>
    <style>
      .cls-1 {
        fill: #7b8388;
      }

      .cls-2 {
        fill: #e2e9ef;
      }
    </style>
  </defs>
  <g>
    <path class="cls-1" d="m498.2,901.27c-57.89,0-107.48-17.78-139.64-50.06-23.45-23.53-36.91-53.51-40.14-89.28-12.25,7.02-25.4,10.67-38.77,10.67-22.43,0-44.25-9.99-61.44-28.14-19.5-20.57-29.95-48.43-28.74-76.57-12.12-69.3,12.49-147.38,82.59-167.78,3.27-41.01,31.53-66.03,84.15-74.49,15.79-41.83,61.29-68.52,117.88-68.52,5.38,0,10.76.26,16.09.77,4.64-68.4,39.17-143.91,95.86-208.89,24.24-29.05,71.06-50.26,111.19-50.26,23.3,0,41.96,7.27,53.94,21.01,12.57,14.42,17.15,34.86,13.59,60.77-.16,1.17-.54,2.31-1.11,3.34-11.5,20.78-25.79,40.48-39.61,59.54-25.36,34.98-49.45,68.2-58.82,108.36,3.17-.3,6.33-.46,9.47-.46,72.06,0,127.57,79.93,132.53,151.87,16.05,92.08,1.29,164.69-43.87,215.84-11.35,13.6-20.86,29.73-30.05,45.34-12.4,21.04-25.22,42.8-43.64,60.5-42.83,47.16-116.15,76.44-191.44,76.44h-.03Z"/>
    <path class="cls-1" d="m697.22,108.32c36.28,0,65.1,19.42,58.04,70.88-33.74,60.95-91.42,111.58-102,184.25,7.31-1.75,14.46-2.58,21.43-2.58,68.34,0,118.81,79.44,123,143.43,12.74,72.61,9.51,150.55-41.52,208.34-27.6,33.06-42.19,75.66-73.38,105.5-42.39,46.86-115.57,73.54-184.59,73.54-89.15,0-171.32-44.57-170.96-147.79-15.39,13.35-31.81,19.12-47.59,19.12-44.15,0-83.27-45.15-80.56-95.75-11.69-64.67,10.69-143.54,82.23-159.65.31-43.46,29.59-66.39,82.07-73.36,13.75-45.63,62.38-67.57,110.69-67.57,8.47,0,16.94.68,25.2,2.02,1.74-78.15,43.42-155.47,93.98-213.42,22.43-26.88,67.06-46.97,103.97-46.97m0-19.17c-42.66,0-92.47,22.57-118.55,53.69-55.35,63.5-90.05,137.01-97.23,204.83-2.45-.1-4.9-.15-7.36-.15-58.38,0-105.89,26.92-124.75,69.57-61.41,11.53-81.55,44.8-86.1,75.76-70.5,24.42-95.51,104.32-83.4,175.67-1.01,30.37,10.37,60.34,31.41,82.53,19.03,20.07,43.32,31.13,68.4,31.13,10.58,0,21.01-2.01,31.02-5.92,5.45,32.08,19.39,59.93,41.11,81.73,33.98,34.1,85.98,52.87,146.43,52.87,77.8,0,153.72-30.39,198.34-79.34,19.24-18.57,32.34-40.81,45.02-62.32,9.37-15.9,18.22-30.92,29.17-44.08,46.96-53.33,62.44-128.39,46.02-223.13-5.4-74.97-63.22-157.92-138.8-160.24,10.66-33.16,31.76-62.27,53.85-92.74,13.99-19.29,28.45-39.24,40.23-60.53,1.15-2.07,1.9-4.34,2.22-6.68,3.95-28.77-1.39-51.78-15.87-68.37-13.86-15.89-35.01-24.29-61.17-24.29h0Z"/>
  </g>
  <path class="cls-2" d="m797.69,504.31c-4.62-70.51-65.43-159.79-144.43-140.85,10.58-72.67,68.26-123.3,102-184.25,14.24-103.84-117.54-77.21-162.01-23.91-50.55,57.95-92.24,135.27-93.98,213.42-55.38-8.98-119.73,11.93-135.89,65.55-52.48,6.97-81.76,29.9-82.07,73.36-71.54,16.11-93.92,94.98-82.23,159.65-3.68,68.69,69.73,127.32,128.15,76.63-.63,183.12,258.41,181.63,355.55,74.25,31.19-29.83,45.78-72.44,73.38-105.5,51.03-57.79,54.26-135.72,41.52-208.34Z"/>
  <path class="cls-1" d="m293.02,648.18c14.92,22.82,42.2,32.69,68.69,30.48,5.61-.47,11.06-4.63,10.79-10.79-.24-5.44-4.76-11.29-10.79-10.79-3.01.25-6.03.39-9.05.34-1.51-.03-3.01-.1-4.51-.21-.75-.06-1.5-.13-2.25-.21-.54-.05-1.67-.24-.49-.05-2.7-.44-5.38-.99-8.01-1.74-1.18-.34-2.35-.7-3.51-1.11-.58-.2-1.15-.43-1.73-.63-1.93-.68.74.39-.41-.14-2.23-1.04-4.43-2.11-6.54-3.37-1.05-.63-2.08-1.29-3.09-1.98-.5-.34-.99-.72-1.5-1.06-1.32-.89,1.2,1.06,0,0-1.83-1.62-3.67-3.19-5.34-4.98-.41-.45-.82-.9-1.22-1.36-.14-.16-1.39-1.63-.6-.68.79.95-.4-.56-.53-.74-.44-.62-.87-1.26-1.28-1.9-3.08-4.72-9.69-7.13-14.76-3.87-4.71,3.04-7.17,9.71-3.87,14.76h0Z"/>
  <path class="cls-1" d="m341.69,673.71c.06.31.57,3.55.38,1.9s.11,1.62.12,1.93c.09,1.69.09,3.38,0,5.07-.04.85-.1,1.69-.18,2.54-.05.56-.12,1.13-.19,1.69.18-1.32.21-1.58.09-.77-.36,1.8-.65,3.61-1.08,5.4-1.71,7.14-4.38,14-7.04,20.83-2.05,5.27,2.25,12.06,7.53,13.27,6.19,1.41,11.07-1.89,13.27-7.53,6.27-16.13,11.5-32.6,7.9-50.05-1.14-5.53-7.98-9.25-13.27-7.53-5.86,1.9-8.76,7.34-7.53,13.27h0Z"/>
  <path class="cls-1" d="m299.91,526c36.96,4.96,74.74,18.7,102.85,42.21,5.43,4.54,10.59,9.41,15.42,14.59,2.07,2.22,4.09,4.5,6.04,6.84,1.03,1.23,2.03,2.47,3.03,3.73.25.32,1.25,1.64.02.02.55.72,1.09,1.45,1.63,2.18,5.46,7.43,10.32,15.33,14.32,23.63.78,1.61,1.48,3.26,2.23,4.89-1.5-3.29-.12-.28.41,1.12.4,1.04.79,2.09,1.11,3.16,4,13.26,24.82,7.61,20.8-5.73-3.85-12.76-11.05-25.03-18.7-35.81-18.72-26.37-44.27-47.34-73.53-61.1-24.02-11.29-49.39-17.78-75.63-21.3-5.78-.78-10.79,5.51-10.79,10.79,0,6.47,4.98,10.01,10.79,10.79h0Z"/>
  <path class="cls-1" d="m383.76,450.33c31.09,2.17,62.08,10.96,87.13,30.06,6.69,5.1,15.36,13.68,21.54,21.46,1.26,1.58.13.18-.1-.13.34.45.68.89,1.01,1.35.63.88,1.27,1.76,1.89,2.65,1.15,1.65,2.26,3.33,3.32,5.04,1.77,2.84,3.41,5.75,4.91,8.74.65,1.29,1.22,2.6,1.85,3.9,1.26,2.6-.89-2.51.28.69.3.82.63,1.63.89,2.47,4.11,13.21,24.94,7.57,20.8-5.73-3.31-10.64-9.45-20.81-16.08-29.65-16.55-22.06-38.64-38.23-64.1-48.69-20.13-8.27-41.71-12.21-63.35-13.72-13.85-.97-13.79,20.61,0,21.57h0Z"/>
  <path class="cls-1" d="m511.44,397.21c3.73,1.93,7.38,4.02,10.9,6.31,1.56,1.01,3.1,2.06,4.61,3.14.8.57,1.58,1.15,2.37,1.73.18.13,1.31.98.22.16-1.12-.85.32.26.52.42,5.48,4.37,10.6,9.18,15.31,14.37,1.97,2.16,3.86,4.39,5.68,6.68.25.31.49.65.75.95.09.1-1.46-1.93-.78-1.01.4.54.81,1.07,1.21,1.61.75,1.02,1.49,2.05,2.21,3.09,2.19,3.16,4.25,6.42,6.12,9.79.82,1.49,1.64,2.99,2.33,4.55,2.3,5.17,10.23,6.78,14.76,3.87,5.35-3.45,6.33-9.22,3.87-14.76-2.11-4.74-4.96-9.22-7.87-13.49-7.44-10.92-16.28-20.96-26.46-29.39-7.72-6.39-15.96-12.05-24.87-16.65-5.01-2.59-11.94-1.46-14.76,3.87-2.61,4.95-1.48,11.99,3.87,14.76h0Z"/>
  <path class="cls-1" d="m654.76,355.89c-4.13,16.46-4.47,34.08-3.58,50.94.72,13.75,1.41,29.79,7.98,42.25,2.72,5.15,9.89,6.72,14.76,3.87,5.22-3.05,6.6-9.59,3.87-14.76-.17-.32-.43-1.12-.67-1.37.28.28.81,2.39.44.96-.31-1.19-.78-2.36-1.11-3.55-.77-2.83-1.35-5.72-1.83-8.62-.11-.62-.21-1.25-.3-1.87-.03-.2-.47-3.39-.17-1.07-.22-1.74-.42-3.48-.6-5.22-.39-3.92-.67-7.85-.86-11.78-.38-8.01-.39-16.06.07-24.07.49-8.38.81-12.07,2.8-19.99,3.38-13.47-17.42-19.21-20.8-5.73h0Z"/>
  <path class="cls-1" d="m678.88,446.51c.23-1.47.63-2.87,1.19-4.25-.36.86-.72,1.72-1.09,2.58.86-1.98,2-3.79,3.3-5.51-.56.73-1.12,1.46-1.69,2.18,2.43-3.12,5.28-5.87,8.1-8.63,2.99-2.94,6.05-5.81,9.37-8.38-.73.56-1.46,1.12-2.18,1.69,2.17-1.65,4.43-3.15,6.83-4.45,4.98-2.67,6.95-9.98,3.87-14.76-3.26-5.06-9.43-6.73-14.76-3.87-7.55,4.06-13.9,10.07-19.95,16.05-6.02,5.96-12.45,12.9-13.81,21.61-.46,2.97-.49,5.62,1.09,8.31,1.31,2.24,3.87,4.37,6.45,4.96,2.76.63,5.86.49,8.31-1.09,2.2-1.42,4.54-3.74,4.96-6.45h0Z"/>
  <path class="cls-1" d="m666.86,510.24c6.37-9.93,10.37-21.65,12.41-33.23,2.1-11.95,2.75-24.4-.39-36.24-1.44-5.45-7.76-9.31-13.27-7.53-5.61,1.81-9.08,7.42-7.53,13.27.29,1.1.55,2.2.77,3.32.1.51.15,1.04.27,1.54.35,1.47-.2-2.02-.06-.49.23,2.52.42,5.02.43,7.55s-.11,5.03-.33,7.54c-.05.6-.11,1.21-.18,1.81,0,.01-.37,2.82-.15,1.29.2-1.37-.11.61-.14.84-.12.76-.25,1.52-.39,2.28-.95,5.13-2.3,10.19-4.06,15.1-.25.71-.52,1.41-.79,2.1-.09.22-.81,2.01-.29.77.52-1.24-.23.51-.33.73-.3.66-.6,1.31-.92,1.96-1.1,2.24-2.32,4.41-3.67,6.5-3.05,4.76-1.14,12.11,3.87,14.76,5.35,2.82,11.5,1.21,14.76-3.87h0Z"/>
</svg>