<?xml version="1.0" encoding="UTF-8"?>
<svg id="Layer_1" data-name="Layer 1" xmlns="http://www.w3.org/2000/svg" viewBox="0 0 1000 1000">
  <defs>
    <style>
      .cls-1, .cls-2 {
        fill: #6b7378;
      }

      .cls-3 {
        fill: #bec6cc;
      }

      .cls-3, .cls-2, .cls-4 {
        fill-rule: evenodd;
      }

      .cls-4 {
        fill: #e2e9ef;
      }
    </style>
  </defs>
  <g>
    <path class="cls-2" d="m441.96,895.59c-14.52,0-27.38-1.87-37.2-5.41-24.82-8.95-112.3-59.75-134.15-75.79l-14.57-10.01c-28.03-19.24-57.01-39.14-85.2-59.34-.22-.15-.42-.32-.63-.49l-39.98-34.4c-.17-.15-.34-.3-.49-.46-8.77-8.77-45.25-50.53-50.81-67.86-6.02-18.77-3.34-29.26-1.57-36.2q1.21-4.74-.99-7.07c-.22-.23-.42-.47-.62-.72-17.4-22.79-19.61-29.71-22.17-37.72l-.45-1.41c-4.04-12.42-3.48-24.68,1.71-37.47.22-.55.5-1.07.82-1.57,1.32-2.01,2.61-4.13,3.91-6.27,5.06-8.34,10.76-17.72,20.01-23.62-.18-2.75-.8-7.4-1.11-9.68-2.55-19.02,1.77-34.21,14.01-49.25,7.1-8.72,19.88-21.23,32.52-27.78,10.13-5.24,19.31-5.83,31.12-5.9,16-27.45,37.22-39.76,68.14-39.77,28.83,0,39.74,9.06,53.56,20.54,1.81,1.5,3.71,3.08,5.75,4.72,5.76,4.64,8.73,7.62,13.65,12.56l.17.17,82.4,71c1.39,1.16,3.72,3.38,6.46,5.99,1.28,1.23,3.09,2.96,5.08,4.81.1-4.41.5-9.15,1.31-15.42,3.05-23.74,15.49-40.95,35.01-48.47,7-2.69,13.14-3.89,19.92-3.89.89,0,1.77.02,2.64.05-2.93-29.5-.94-51.64,23.86-73.57.95-1.59.81-9.34.72-14.47-.31-17.93-.79-45.02,25.57-62.34,12.97-8.52,23.3-9.58,30.13-10.29,1.95-.2,4.62-.48,5.28-.86,1.15-1.69,2.25-4.2,3.41-6.86,1.38-3.17,2.96-6.76,5.16-10,12.5-18.37,39.68-25.65,59.17-26.31.79-.03,1.56-.04,2.32-.04,16.43,0,27.25,5.94,36.47,11.96.59-.24,1.2-.49,1.81-.74,7.22-2.95,18.12-7.4,31.8-7.4,14.44,0,28.56,5.07,41.97,15.08,24.51,18.3,29.59,38.78,36.02,64.7,8.49,34.25,15.27,53.93,24.64,81.18,2.6,7.55,5.37,15.61,8.4,24.63l5.65,16.13c1.08-1.77,2.18-3.52,3.52-5.53,15.03-22.59,33.39-27.34,46.15-27.34,24.38,0,45.78,16.9,54.32,33.59,12.94,25.3,9.8,63.15,7.51,90.79l-.11,1.35c-.55,6.68-.36,15.13-.17,23.3.09,4.14.18,8.17.18,11.85,0,4.63-.42,7.47-.79,9.97-.3,2.03-.55,3.79-.59,6.71-.51,40.81,8.09,84.48,24.85,126.29,2.36,5.89,4.83,9.86,7.44,14.06,5.12,8.25,10.42,16.78,13.33,37.04,6.14,42.78-10.8,80.75-45.31,101.56-33.03,19.92-88.24,33.92-104.38,37.74-29.84,7.06-54.29,10.35-76.94,10.35h0c-39.44,0-72.18-10.28-100.11-31.43-2-1.52-3.98-2.99-5.95-4.45-4.5-3.34-9.15-6.8-13.96-10.73-4.42-3.61-8.35-7.47-11.88-11.65l-3.82,3.51c-25.04,25.14-35.36,32.43-65.16,50.25-18.07,10.8-49.73,18.06-78.77,18.06Z"/>
    <path class="cls-1" d="m605.84,213.76c15.95,0,25.73,6.58,35.2,12.92,5.93-1.38,18.3-9.1,34.89-9.1,10.66,0,23.05,3.19,36.58,13.29,21.32,15.92,26.06,33.01,32.67,59.66,11,44.34,19.43,65.37,33.25,106.51l12.65,36.08c1.34-5.76,2.79-7.53,5.68-12.27,2.57-4.22,4.23-7.13,6.86-11.09,11.26-16.93,25.2-23.32,38.65-23.32,19.95,0,38.83,14.07,46.3,28.69,11.97,23.41,8.64,60.65,6.44,87.3-.88,10.64,0,24.84-.02,35.88-.01,7.7-1.29,9.3-1.38,16.57-.56,45.16,9.45,89.72,25.5,129.76,7.48,18.66,16.12,20.52,20.21,49.03,5.52,38.42-8.7,73.07-41.05,92.58-26.52,15.99-70.45,29.27-101.8,36.69-24.97,5.91-50.24,10.11-74.87,10.11-33.52,0-65.86-7.78-94.67-29.6-6.62-5.02-12.95-9.5-19.65-14.97-7.2-5.89-12.37-11.95-16.54-18.38.07.11.16.25.21.34l-11.15,10.24c-24.5,24.59-34.34,31.61-63.69,49.15-17.04,10.19-47.39,16.79-74.15,16.79-12.82,0-24.82-1.52-34.14-4.88-23.6-8.51-109.97-58.5-131.87-74.58-33.44-22.98-66.88-45.77-99.86-69.4l-39.98-34.39c-10.14-10.14-44.01-49.92-48.6-64.24-9.99-31.17,7.17-34.27-4.59-46.7-17.53-22.96-18.62-28.45-21.22-36.44-2.84-8.73-3.5-19.01,1.49-31.31,6.47-9.81,12.09-22.13,22.53-28.04,3.36-1.9,3.66-2.95,1.68-17.69-2.38-17.73,2.05-30.07,12.07-42.37,7.37-9.06,19.2-20.04,29.68-25.46,9.41-4.87,18.06-4.9,31.65-4.9h.63c14.09-26.63,32.64-39.75,62.84-39.76h.03c29.02,0,36.22,9.25,53.64,23.28,5.53,4.46,8.32,7.29,13.33,12.31l82.65,71.22c5.14,4.3,20.84,20.97,27.31,22.7-1.11-13.33-1.48-18.91.33-33,2.42-18.82,11.55-34.37,29.32-41.21,6.88-2.65,12.05-3.29,16.69-3.29,4.38,0,8.3.57,12.77.57-4.07-33.16-4.89-54.61,19.7-76.35,11.23-9.93-9.58-53.13,25.27-76.03,20.29-13.33,32.05-5.29,37.8-13.49,3.38-4.82,5.2-11.86,8.68-16.97,10.4-15.28,34.3-21.78,52.03-22.38.68-.02,1.36-.03,2.02-.03m0-18h0c-.86,0-1.74.01-2.63.04-22.62.76-51.92,9.11-66.3,30.24-2.67,3.92-4.42,7.93-5.96,11.46-.33.74-.68,1.56-1.03,2.33-.11.01-.23.02-.33.03-7.24.74-19.35,1.99-34.15,11.72-30.5,20.04-29.95,51.33-29.62,70.02.06,3.18.13,7.29-.07,9.73-22.83,21.37-26.82,43.28-25.25,69.5-5.3.62-10.54,1.96-16.07,4.09-22.07,8.49-36.34,27.36-40.36,53.28l-80.52-69.38c-4.93-4.94-8.19-8.22-14.31-13.14-2-1.61-3.87-3.16-5.65-4.64-14.61-12.14-27.23-22.62-59.29-22.62-32.37,0-55.89,12.73-73.25,39.85-10.33.29-19.94,1.53-30.17,6.83-13.87,7.18-27.72,20.69-35.37,30.09-13.94,17.13-18.85,34.44-15.95,56.12.12.88.34,2.55.55,4.28-8.31,6.83-13.71,15.73-18.22,23.16-1.24,2.05-2.47,4.07-3.73,5.99-.65.99-1.2,2.04-1.65,3.14-5.94,14.64-6.59,29.32-1.93,43.65l.44,1.37c3.17,9.91,6.52,18.08,23.59,40.43.02.02.03.04.05.06,0,.01,0,.03-.01.04-1.9,7.46-5.09,19.94,1.72,41.17,6.82,21.26,48.5,66.96,53.01,71.47.32.32.65.62.99.92l39.98,34.39c.4.35.82.68,1.26.99,28.27,20.26,57.31,40.19,85.39,59.47l14.54,9.98c23.12,16.88,110.29,67.49,136.18,76.83,10.93,3.94,24.47,5.94,40.25,5.94,31.01,0,63.74-7.59,83.39-19.34,29.3-17.52,40.73-25.62,63.99-48.69,2.07,2.01,4.25,3.95,6.55,5.83,4.97,4.07,9.72,7.59,14.3,10.99,1.94,1.44,3.9,2.89,5.87,4.39,29.54,22.38,64.07,33.26,105.54,33.26,23.37,0,48.48-3.37,79.02-10.59,21.09-4.99,73.74-18.76,106.95-38.79,37.72-22.75,56.25-64.07,49.57-110.55-3.18-22.13-9.24-31.89-14.6-40.51-2.5-4.02-4.66-7.5-6.73-12.65-16.33-40.73-24.7-83.21-24.21-122.84.03-2.32.21-3.59.5-5.51.39-2.66.88-5.98.88-11.26,0-3.75-.09-7.85-.18-12.06-.18-7.94-.37-16.15.14-22.36l.11-1.35c2.38-28.71,5.64-68.04-8.46-95.63-9.78-19.13-34.33-38.5-62.33-38.5-17.82,0-34.16,7.91-46.91,22.51-2.99-8.9-5.73-16.86-8.3-24.33-9.3-27.03-16.02-46.55-24.42-80.42-6.59-26.57-12.28-49.52-39.37-69.75-14.99-11.19-30.92-16.87-47.35-16.87-13.83,0-25.19,4.05-32.72,7.07-9.33-5.66-20.92-10.88-37.37-10.88h0Z"/>
  </g>
  <g id="Clap">
    <path class="cls-3" d="m590.95,810.41c-.67-1.04-2.13-3.43-3.09-5.13-10.83-27.02-20.04-43.84-27.35-60.74-16.69-38.55-39.6-102.85-59.62-154.43-11.29-32.28-35.1-104.65-38.22-137.72-.91-9.71-.71-25.3-2.33-33.38-9.19,0-16.07-2.43-29.46,2.72-17.77,6.84-26.9,22.39-29.32,41.21-1.81,14.09-1.44,19.67-.33,33-6.47-1.73-22.17-18.4-27.31-22.7l-82.65-71.22c-5.01-5.03-7.8-7.86-13.33-12.31-17.43-14.03-24.63-23.28-53.67-23.28-30.2,0-48.74,13.12-62.84,39.76-13.96,0-22.73-.04-32.29,4.9-10.47,5.42-22.31,16.41-29.68,25.46-10.01,12.3-14.44,24.64-12.07,42.37,1.98,14.74,1.68,15.79-1.68,17.69-10.45,5.9-16.07,18.22-22.53,28.04-4.99,12.3-4.33,22.58-1.49,31.31,2.6,8,3.69,13.48,21.22,36.44,11.76,12.43-5.41,15.53,4.59,46.7,4.59,14.32,38.45,54.1,48.6,64.24l39.98,34.39c32.98,23.63,66.42,46.42,99.86,69.4,21.9,16.08,108.27,66.06,131.87,74.58,28.76,10.38,83.08,3.16,108.29-11.91,29.35-17.55,39.19-24.56,63.69-49.15l11.15-10.24Z"/>
    <path class="cls-2" d="m415.39,538.85c-2.1-4.93.2-10.62,5.13-12.72,4.93-2.1,10.62.2,12.72,5.13,10.49,24.67,25.99,48.28,46.78,70.76,21.01,22.73,47.45,44.37,79.61,64.85,4.51,2.87,5.83,8.86,2.96,13.37-1.1,1.72-2.66,2.98-4.41,3.72-23.22,9.81-42.34,23.4-57.1,40.97-14.76,17.57-25.3,39.31-31.36,65.42-1.2,5.22-6.4,8.49-11.62,7.29-5.22-1.2-8.49-6.4-7.29-11.62,6.76-29.13,18.67-53.57,35.46-73.55,13.25-15.77,29.46-28.66,48.51-38.8-27.14-18.55-50.07-38.07-68.96-58.51-22.39-24.22-39.09-49.68-50.42-76.31h0Zm-21.76,82.27h0c4.17,3.33,4.85,9.42,1.52,13.59-3.33,4.17-9.42,4.85-13.59,1.52l-204.46-163.57c-5.28-3.53-9.46-8.08-12.58-13.61-3.01-5.32-4.99-11.45-5.99-18.35-.76-5.3,2.93-10.22,8.24-10.97,5.3-.76,10.22,2.93,10.98,8.24.65,4.53,1.86,8.38,3.63,11.52,1.64,2.89,3.81,5.26,6.54,7.08l-.02.02c.24.16.47.33.7.51l205.03,164.03h0Zm-39.88,70.95h0l-217.02-178.62c-2.36-2.35-4.17-4.76-5.45-7.21-1.26-2.42-2.06-4.97-2.39-7.62-.67-5.3-5.52-9.06-10.82-8.39-5.3.67-9.06,5.52-8.39,10.82.63,4.93,2.1,9.65,4.44,14.15,2.28,4.38,5.36,8.49,9.26,12.3.2.2.42.39.64.58l217.44,178.96c4.13,3.4,10.23,2.8,13.63-1.33,3.4-4.13,2.8-10.23-1.33-13.63h0Zm-63.76,26.9h0l-169.85-131.63c-4.24-3.27-10.32-2.49-13.59,1.75-3.27,4.23-2.49,10.32,1.75,13.59l169.85,131.63c4.23,3.27,10.32,2.49,13.59-1.75,3.27-4.23,2.49-10.32-1.75-13.59Z"/>
    <path class="cls-2" d="m399.89,355.48c-1.43,5.16-6.76,8.18-11.92,6.76-5.16-1.43-8.18-6.76-6.76-11.92,7.49-26.84,7.43-50.51.19-71.18-7.21-20.6-21.72-38.57-43.12-54.06-4.34-3.14-5.31-9.22-2.16-13.55,1.97-2.72,5.09-4.12,8.22-4,36.46-1.07,62.99-10.19,80.21-26.86,17.15-16.6,25.51-41.22,25.68-73.33.02-5.35,4.37-9.66,9.72-9.64,2.53.01,4.84.99,6.56,2.59h.01c25.9,24.1,52.07,39.06,78.51,44.97,26.14,5.84,52.87,2.86,80.18-8.83,4.93-2.1,10.62.2,12.72,5.13,2.1,4.93-.2,10.62-5.13,12.72-31.07,13.31-61.73,16.65-91.95,9.9-24.65-5.5-48.79-17.69-72.43-36.6-3.24,27.98-13.23,50.42-30.36,67-16.65,16.12-39.76,26.37-69.65,30.44,14.61,14.17,25.1,30.07,31.29,47.76,8.56,24.45,8.78,51.97.19,82.72h0Zm-22.85-191.29h0c-8.52-4.1-16.99-11.42-25.43-21.72-8.93-10.91-17.61-24.88-26.07-41.72-2.39-4.78-8.2-6.72-12.98-4.33-3.81,1.91-5.81,5.99-5.26,9.98h-.02c2.12,15.26-2.35,29.65-15.1,42.96-13.96,14.56-37.5,27.96-72.57,39.93-5.07,1.72-7.79,7.23-6.07,12.3.57,1.67,1.54,3.08,2.78,4.17,15.39,14.65,26.84,30.06,33.19,46.46,6.24,16.09,7.61,33.36,3.04,52.07-1.26,5.2,1.94,10.44,7.14,11.69,1.62.39,3.24.35,4.75-.04,13.33-3.53,25.25-4.82,35.69-3.79,9.86.98,18.47,4.07,25.76,9.35,4.34,3.14,10.41,2.17,13.55-2.16,3.15-4.34,2.18-10.41-2.16-13.55-10.1-7.33-21.87-11.6-35.25-12.92-8.7-.86-18.04-.46-28.01,1.18,1.89-17.19-.46-33.42-6.43-48.82-5.87-15.15-15.21-29.35-27.39-42.78,30.46-11.78,51.99-25.08,65.97-39.65,8.13-8.48,13.76-17.35,17.14-26.58,4.37,6.88,8.8,13.07,13.28,18.55,10.2,12.46,20.87,21.5,32.03,26.88,4.82,2.33,10.62.3,12.95-4.52,2.33-4.82.3-10.62-4.52-12.95Z"/>
    <path class="cls-4" d="m460.35,419c1.62,8.08,1.41,23.67,2.33,33.38,3.12,33.08,26.93,105.44,38.22,137.72,19.6,58.52,29.85,87.57,53.11,139.81l19.34,43.45c9.86,22.15,14.55,39.24,33.93,55.09,6.7,5.48,13.03,9.96,19.65,14.97,49.99,37.87,110.58,33.45,169.54,19.49,31.35-7.42,75.28-20.7,101.8-36.69,32.35-19.51,46.57-54.16,41.05-92.58-4.09-28.51-12.73-30.36-20.21-49.03-16.05-40.04-26.06-84.59-25.5-129.76.09-7.28,1.37-8.87,1.38-16.57.01-11.03-.86-25.23.02-35.88,2.21-26.65,5.53-63.89-6.44-87.3-12.52-24.48-56.99-47.4-84.96-5.37-2.63,3.96-4.29,6.87-6.86,11.09-2.89,4.75-4.34,6.51-5.68,12.27l-12.65-36.08c-13.82-41.14-22.26-62.17-33.25-106.51-6.61-26.65-11.35-43.74-32.67-59.66-34.59-25.83-61.73-6.46-71.46-4.19-9.86-6.6-20.06-13.46-37.22-12.88-17.73.6-41.63,7.1-52.03,22.38-3.48,5.11-5.29,12.15-8.68,16.97-5.75,8.2-17.51.16-37.8,13.49-34.85,22.9-14.04,66.09-25.27,76.03-24.59,21.75-23.76,43.19-19.7,76.35Z"/>
    <path class="cls-2" d="m616.82,572.71c1.89,5.01-.65,10.6-5.65,12.49-5.01,1.89-10.61-.64-12.49-5.66l-73.83-194.96c-2.82-6.5-6.43-10.5-10.79-12.08-4.78-1.73-11.11-1.01-18.93,2.1-4.97,1.97-10.6-.46-12.57-5.43-1.97-4.97.46-10.6,5.43-12.57,12.38-4.91,23.29-5.73,32.67-2.33,9.56,3.47,16.91,10.98,21.97,22.66.14.29.27.58.38.89l73.8,194.88h0Zm142.64-50.68h0c1.74,5.07-.96,10.6-6.03,12.34-5.07,1.74-10.6-.96-12.34-6.04l-79.65-232.1-.15-.48h-.02c-4.51-13.13-9.26-26.98-21.72-34.86-4.53-2.85-5.89-8.84-3.04-13.37,2.85-4.53,8.83-5.89,13.37-3.04,18.3,11.58,24.19,28.71,29.76,44.95-.03.01.15.43.17.49l79.65,232.1h0Zm-73.97,25.26h0l-91.03-241.64-.19-.47c-6.04-16.1-12.43-33.09-30.99-44.1-4.61-2.72-10.56-1.2-13.29,3.42-2.73,4.61-1.2,10.56,3.42,13.29,12.73,7.55,17.86,21.23,22.72,34.18l.18.52,91.03,241.64c1.89,5.01,7.48,7.54,12.49,5.66,5.01-1.89,7.54-7.48,5.65-12.49Z"/>
  </g>
</svg>