<?xml version="1.0" encoding="UTF-8"?>
<svg id="Layer_1" data-name="Layer 1" xmlns="http://www.w3.org/2000/svg" viewBox="0 0 1000 1000">
  <defs>
    <style>
      .cls-1 {
        fill: #22272b;
      }
    </style>
  </defs>
  <path class="cls-1" d="m556.05,104.73c1.52,39.23-21.07,59.93-59.23,61.41l-24.07.93c-38.16,1.48-62.24-16.16-63.81-56.63l39.23-1.52c.51,13.2,6.78,22.77,23.18,22.14l24.07-.93c16.58-.64,21.91-10.67,21.4-23.87l-1.31-33.7-90.94,3.53-1.33-34.24,130.17-5.05,2.64,67.94Z"/>
  <path class="cls-1" d="m734.39,168.34c-15.65,35.42-52.22,47.56-88.78,31.4l-22.04-9.73c-35.75-15.79-52.23-51.35-36.58-86.78,15.57-35.25,52.22-47.55,88.78-31.4l22.04,9.73c36.56,16.15,52.16,51.52,36.58,86.78Zm-36.57-16.15c6.49-14.69.71-30.32-14.8-37.16l-22.04-9.73c-15.51-6.85-30.95-.6-37.43,14.1-6.56,14.85-.71,30.31,14.8,37.16l22.04,9.74c15.51,6.85,30.87.76,37.43-14.09Z"/>
  <path class="cls-1" d="m791.84,143.05l29.36,26.07-82.94,93.44-29.37-26.07,82.94-93.43Z"/>
  <path class="cls-1" d="m934.51,328.31l-107.24,64.12-19.79-33.09,22.89-97.71-59.9,35.82-19.79-33.09,107.24-64.12,19.79,33.09-22.12,97.25,59.13-35.36,19.79,33.09Z"/>
  <path class="cls-1" d="m923.26,596.07l2.64-53.3-90.37-4.48,1.94-39.21,90.37,4.48,2.65-53.48,34.4,1.7-7.24,145.99-34.4-1.71Z"/>
  <path class="cls-1" d="m870.64,787.12l-109.79-59.61,18.73-34.51,40.78,22.14,32.79-60.39-40.78-22.14,18.73-34.51,109.79,59.61-18.73,34.5-38.43-20.86-32.78,60.39,38.43,20.86-18.74,34.51Z"/>
  <path class="cls-1" d="m778.83,827.64l-7.61-9.91-58.74,45.1-19.78-25.76,58.74-45.1-7.28-9.48-68.37,52.49-20.76-27.04,99.51-76.4,76.07,99.08-99.51,76.4-20.65-26.89,68.37-52.49Z"/>
  <path class="cls-1" d="m464.47,907.58c-3.93-38.34,23.11-65.15,61.99-69.13l78.29-8.01,12.72,124.27-78.29,8.01c-38.88,3.98-70.76-16.61-74.7-55.14Zm39.76-4.07c1.63,15.98,14.94,26.81,31.45,25.12l39.41-4.03-5.74-56.1-39.41,4.03c-16.48,2.04-27.33,15.18-25.71,30.97Z"/>
  <path class="cls-1" d="m428.14,959.38l-38.51-7.69,24.45-122.52,38.51,7.68-24.45,122.53Z"/>
  <path class="cls-1" d="m257.61,802.44c12.06-22.69,36.34-29.6,73.46-10.09l23.49,12.47c44.13,23.44,38.32,51.88,30.45,66.69l-34.83-18.5c1.98-6.02-3.05-12.53-14.24-18.47l-21.28-11.3c-12.45-6.61-18.99-6.85-21.25-2.6-1.67,3.15-.42,7.26,7.62,11.53l38.77,20.59c27.42,14.57,34.6,34.54,24.22,54.08-10.21,19.23-32.79,31.69-71.8,11.17l-22.38-11.88c-44.6-23.69-35.47-54.2-29.77-64.92l34.83,18.5c-1.79,4.9.36,11.1,11.71,17.13l21.44,11.38c13.08,6.95,18,4.91,19.76,1.6,1.76-3.31.42-7.26-6.67-11.02l-41.45-22.01c-26.16-13.9-32.43-34.81-22.06-54.35Z"/>
  <path class="cls-1" d="m160.75,702.32l-24.17-32.73c29.47-16.87,63.38-8.19,85.32,21.53l14.31,19.39c23.21,31.44,19.88,70.51-11.28,93.5-31.02,22.89-68.94,15.4-92.67-16.77l-14.31-19.38c-21.94-29.72-20.24-64.69,4.56-87.88l24.17,32.74c-6.64,9.34-7.35,22.5.71,33.41l14.31,19.39c10.07,13.64,26.58,15.87,39.5,6.33,13.5-9.96,16.08-26.29,6.02-39.94l-14.31-19.38c-8.05-10.92-21.13-13.9-32.15-10.21Z"/>
  <path class="cls-1" d="m91.24,489.75c38.17-6.55,68.51,17.21,75.28,56.62l4.08,23.75c6.61,38.52-13.91,71.93-52.08,78.48-38,6.52-68.51-17.21-75.28-56.62l-4.08-23.75c-6.77-39.41,14.09-71.96,52.08-78.48Zm6.77,39.41c-15.83,2.72-25.66,16.17-22.79,32.89l4.07,23.75c2.87,16.71,16.62,26.12,32.45,23.41,16.01-2.75,25.66-16.18,22.79-32.89l-4.08-23.75c-2.87-16.71-16.44-26.15-32.45-23.4Z"/>
  <path class="cls-1" d="m35.1,441.19l25.67-88.07c8.94-30.67,35.56-44.85,61.09-37.41,16.45,4.79,28.4,17.38,32.48,34.01l41.3-12.88-12.73,43.69-32.16,8.29-12.09,41.47,27.42,7.99-11.03,37.87-119.94-34.95Zm85.12-70.75c2.1-7.2-1.98-14.89-9.35-17.04-7.37-2.15-14.94,2.15-17.04,9.35l-14.63,50.2,26.39,7.69,14.63-50.2Z"/>
  <path class="cls-1" d="m248.38,181.06c28.99,25.42,27.44,63.46,1.67,92.85l-51.89,59.19-93.95-82.37,51.9-59.19c25.77-29.39,63.15-36.02,92.27-10.49Zm-26.36,30.06c-12.08-10.59-29.21-9.47-40.15,3.02l-26.12,29.8,42.41,37.18,26.12-29.8c10.67-12.72,9.68-29.73-2.26-40.2Z"/>
  <path class="cls-1" d="m262.72,155.55l-22.93-37.23,33.43-20.59,22.94,37.23,14.23,36.72-21.28,13.1-26.39-29.23Zm23.21,37.68l33.43-20.59,19.37,31.45-33.43,20.6-19.38-31.46Z"/>
</svg>