<?xml version="1.0" encoding="UTF-8"?>
<svg id="Layer_1" data-name="Layer 1" xmlns="http://www.w3.org/2000/svg" viewBox="0 0 1000 1000">
  <defs>
    <style>
      .cls-1 {
        fill: #f4f3ef;
      }

      .cls-2 {
        fill: #22272b;
      }
    </style>
  </defs>
  <circle class="cls-2" cx="499.23" cy="501.93" r="264.54"/>
  <path class="cls-1" d="m587.28,362.69c-24.46-4.42-49.7-5.67-75.15-3.44-1.56,6.19-3.13,14.39-4,20.8-26.9,2.96-52.53,9.74-76.89,20.35-3.94-5.14-9.43-11.47-13.88-16.07-23.24,10.66-44.58,24.26-63.65,40.23-26.35,77.97-21.13,145.82,1.7,208.02,34.88,14.04,66.59,19.78,96.63,21.08,4.36-11.24,7.81-22.88,10.28-34.84-11.03-1.16-21.88-3.32-32.39-6.37,1.93-2.42,3.8-4.91,5.56-7.43,62.18,11.24,122.3-4.67,170.12-45.02,2.81,1.31,5.66,2.55,8.51,3.7-7.65,7.89-16.03,15.14-25.05,21.6,8.05,9.14,16.79,17.58,26.17,25.19,25.48-15.99,50.24-36.68,73.6-66.16-12.58-75.79-48.46-134.89-101.56-181.66Zm-131.39,201.33c-16.61,4.4-34.34-7.51-39.33-26.39-5-18.88,4.22-37.94,21.12-42.42,16.9-4.47,34.63,7.43,39.34,26.42,5.02,18.88-4.23,37.92-21.13,42.39Zm111.72-29.57c-16.61,4.4-34.34-7.51-39.33-26.39-5-18.88,4.22-37.94,21.12-42.42,16.9-4.47,34.63,7.43,39.34,26.42,5,18.88-4.23,37.92-21.13,42.39Z"/>
</svg>