<?xml version="1.0" encoding="UTF-8"?>
<svg id="Layer_1" data-name="Layer 1" xmlns="http://www.w3.org/2000/svg" viewBox="0 0 5209.3 1000">
  <defs>
    <style>
      .cls-1 {
        fill: #f4f3ef;
      }
    </style>
  </defs>
  <path class="cls-1" d="m173.93,135.14v729.72h1576.35V135.14H173.93Zm1463.3,113.05v381.63h-287.92v121.99h-774.41v-121.99h-287.92V248.19h1350.26Zm781.97,127.97h247.69v61.92c0,33.85-12.07,62.96-36.22,87.31-24.15,24.36-53.36,36.53-87.62,36.53,34.26,0,63.47,12.08,87.62,36.23,24.15,24.15,36.22,53.36,36.22,87.62v61.92h-247.69v-61.92c0-16.92-6.1-31.47-18.27-43.66-12.18-12.17-26.73-18.27-43.65-18.27h-185.76v123.84h-247.69V252.31h247.69v247.69h185.76c16.92,0,31.47-6.09,43.65-18.27,12.17-12.17,18.27-26.72,18.27-43.65v-61.92Zm967.52,54.18c-36.13-36.12-79.99-54.18-131.58-54.18h-371.53c-51.19,0-94.95,18.06-131.27,54.18-36.33,36.13-54.49,79.99-54.49,131.58s18.16,94.95,54.49,131.27c36.32,36.33,80.08,54.49,131.27,54.49h557.29v-123.84h-433.45c-16.93,0-31.48-6.08-43.66-18.27-12.18-12.17-18.27-26.72-18.27-43.66h495.37c0-51.6-18.06-95.46-54.18-131.58Zm-193.5,116.1h-247.69v-15.48c0-8.25,3.1-15.48,9.29-21.67,6.19-6.19,13.41-9.29,21.67-9.29h185.76c8.25,0,15.48,3.1,21.67,9.29,6.19,6.19,9.29,13.42,9.29,21.67v15.48Zm983-116.1c-36.13-36.12-79.99-54.18-131.58-54.18h-371.53c-51.19,0-94.95,18.06-131.27,54.18-36.33,36.13-54.49,79.99-54.49,131.58s18.16,94.95,54.49,131.27c36.32,36.33,80.08,54.49,131.27,54.49h557.29v-123.84h-433.45c-16.93,0-31.48-6.08-43.66-18.27-12.18-12.17-18.27-26.72-18.27-43.66h495.37c0-51.6-18.06-95.46-54.18-131.58Zm-193.5,116.1h-247.69v-15.48c0-8.25,3.1-15.48,9.29-21.67,6.19-6.19,13.41-9.29,21.67-9.29h185.76c8.25,0,15.48,3.1,21.67,9.29,6.19,6.19,9.29,13.42,9.29,21.67v15.48Zm998.48-116.1c36.12,36.13,54.18,79.99,54.18,131.58s-18.06,94.95-54.18,131.27c-36.13,36.33-79.98,54.49-131.58,54.49h-278.65v-123.84h154.8c16.92,0,31.47-6.08,43.65-18.27,12.17-12.17,18.27-26.72,18.27-43.66s-6.1-31.47-18.27-43.65c-12.18-12.17-26.73-18.27-43.65-18.27h-185.77v247.69h-247.69V252.31h247.69v123.84h309.61c51.6,0,95.45,18.06,131.58,54.18Z"/>
</svg>